<?xml version="1.0" standalone="no"?>
<!DOCTYPE svg PUBLIC "-//W3C//DTD SVG 20010904//EN"
 "http://www.w3.org/TR/2001/REC-SVG-20010904/DTD/svg10.dtd">
<svg version="1.0" xmlns="http://www.w3.org/2000/svg"
 width="2100.000000pt" height="1500.000000pt" viewBox="0 0 2100.000000 1500.000000"
 preserveAspectRatio="xMidYMid meet">
<metadata>
Created by potrace 1.15, written by Peter Selinger 2001-2017
</metadata>
<g transform="translate(0.000000,1500.000000) scale(0.100000,-0.100000)"
fill="#000000" stroke="none">
<path d="M18514 14687 c-26 -27 -304 -297 -599 -582 -120 -115 -273 -264 -341
-330 -68 -66 -163 -158 -211 -204 -48 -46 -174 -169 -280 -273 -106 -103 -194
-188 -197 -188 -2 0 -87 -82 -189 -182 -297 -293 -612 -599 -626 -607 -7 -5
-101 -95 -210 -202 -194 -190 -339 -332 -776 -754 -120 -115 -273 -264 -341
-330 -68 -66 -163 -158 -211 -204 -48 -46 -176 -170 -284 -275 -108 -105 -287
-279 -398 -386 -110 -107 -275 -267 -365 -355 -91 -88 -195 -189 -233 -224
-37 -35 -147 -140 -244 -235 -96 -94 -273 -265 -393 -381 -119 -115 -293 -284
-386 -375 -93 -91 -234 -228 -315 -305 -80 -77 -180 -173 -223 -214 -42 -41
-167 -162 -278 -270 -111 -108 -299 -290 -418 -406 -120 -115 -282 -273 -360
-350 -79 -77 -174 -169 -212 -204 -38 -35 -148 -141 -245 -235 -97 -94 -274
-265 -393 -381 -119 -115 -293 -284 -386 -375 -93 -91 -255 -248 -361 -350
-105 -102 -211 -204 -234 -227 -24 -24 -45 -43 -47 -43 -3 0 -88 -82 -189
-183 -102 -100 -283 -276 -403 -392 -120 -115 -282 -273 -361 -350 -79 -77
-174 -169 -212 -204 -70 -66 -316 -304 -576 -558 -81 -79 -147 -148 -147 -152
0 -5 63 -73 140 -152 77 -78 140 -146 140 -151 0 -17 39 -7 45 12 3 11 10 20
15 20 4 0 91 82 193 182 182 180 574 560 652 632 22 21 119 114 215 208 155
151 279 272 619 601 l91 88 0 -1660 0 -1661 -220 0 -220 0 0 -310 0 -310 2320
0 2320 0 0 2228 0 2227 2015 -3 2015 -2 0 2365 0 2365 1895 0 1895 0 0 300 0
300 -1715 0 -1715 0 0 1243 0 1242 76 70 c41 39 141 134 221 212 80 78 184
179 232 223 47 45 167 162 267 259 100 97 252 244 338 328 l156 152 -122 125
c-68 68 -133 136 -145 150 -28 32 -51 33 -79 3z m-1314 -2952 l0 -1055 -305 0
-305 0 0 -2367 0 -2368 -1485 0 -1485 0 0 1697 c0 1439 2 1698 14 1705 14 8
245 230 570 548 90 88 261 255 381 370 119 116 273 264 341 330 68 66 163 158
211 204 48 46 175 169 280 273 106 103 195 188 197 188 1 0 75 71 163 158 195
191 566 551 648 627 108 102 442 427 603 587 86 86 160 157 165 157 4 1 7
-474 7 -1054z m-3940 -4272 l0 -1518 -355 3 -355 2 0 -2215 0 -2215 -1600 0
-1600 0 0 1838 0 1837 108 104 c59 56 186 180 283 274 97 95 265 258 373 362
108 105 261 253 340 330 79 77 228 222 332 322 327 314 411 395 948 918 144
140 263 255 584 564 43 40 156 150 253 245 97 94 276 268 398 386 122 118 237
229 254 247 18 18 33 32 35 33 1 0 2 -683 2 -1517z"/>
<path d="M3563 13465 c-18 -19 -37 -44 -43 -55 -6 -11 -17 -20 -24 -20 -8 0
-19 -20 -26 -48 -9 -40 -17 -52 -44 -65 -19 -9 -38 -28 -46 -46 -16 -39 -24
-39 -63 1 -35 34 -100 67 -134 68 -13 0 -23 5 -23 10 0 6 -12 10 -26 10 -38 0
-74 -42 -74 -87 0 -19 -6 -49 -14 -66 -8 -18 -19 -50 -25 -72 -11 -43 -53 -95
-76 -95 -8 0 -15 -4 -15 -9 0 -5 -12 -12 -27 -15 -28 -7 -53 -43 -53 -79 0
-10 -4 -15 -10 -12 -5 3 -10 17 -10 31 0 45 -43 24 -53 -26 -2 -14 -5 -4 -6
23 -1 46 1 49 29 60 19 7 33 21 37 35 8 34 -3 153 -15 161 -6 3 -14 19 -17 34
-5 17 -14 27 -26 27 -10 0 -19 -4 -19 -8 0 -5 -8 -17 -18 -28 -10 -11 -22 -33
-26 -49 -4 -16 -16 -48 -26 -70 -10 -22 -22 -53 -26 -69 -3 -15 -17 -32 -30
-38 -43 -20 -21 -73 35 -84 19 -4 40 -18 53 -38 13 -17 15 -25 7 -19 -12 9
-38 11 -93 7 l-76 -7 0 -33 c0 -31 3 -33 55 -49 70 -20 84 -43 58 -100 -14
-33 -18 -36 -21 -18 -2 12 -15 26 -33 33 -16 7 -29 16 -29 20 0 5 -16 14 -35
20 -19 6 -35 15 -35 18 0 9 -50 32 -68 32 -10 0 -13 -8 -10 -25 3 -14 1 -25
-3 -25 -5 0 -9 -6 -9 -13 0 -7 -16 -19 -35 -27 -19 -8 -35 -17 -35 -21 0 -3
-13 -12 -30 -19 -18 -8 -30 -20 -30 -31 0 -11 -6 -19 -13 -19 -15 0 -87 -135
-87 -162 0 -9 -9 -20 -20 -23 -13 -4 -20 -15 -20 -31 0 -13 -5 -23 -11 -22
-15 4 -30 -42 -38 -119 -6 -57 -5 -63 12 -63 10 0 15 -4 12 -10 -3 -5 -17 -10
-31 -10 -13 0 -24 5 -24 10 0 18 -38 10 -45 -9 -10 -32 -96 -116 -115 -113
-10 2 -21 -2 -25 -8 -3 -6 -10 -8 -15 -5 -4 3 -13 -2 -20 -10 -7 -8 -16 -15
-21 -15 -10 0 -49 -40 -94 -96 -44 -54 -106 -113 -127 -120 -31 -10 -19 -24
20 -23 20 0 55 11 77 24 22 13 51 30 65 37 14 7 27 15 30 18 3 3 23 14 45 25
22 11 42 23 45 26 3 3 23 12 45 19 22 7 45 17 52 22 6 5 25 10 42 10 35 1 39
12 14 36 -15 15 -15 17 0 20 8 2 19 16 22 32 3 15 15 38 26 51 19 22 19 22 19
-99 0 -71 -4 -122 -10 -122 -12 0 -56 -44 -78 -78 -20 -33 -32 -48 -54 -72 -9
-10 -22 -28 -28 -40 -6 -12 -27 -28 -45 -36 -19 -7 -36 -18 -39 -23 -6 -10
-55 -3 -73 11 -14 11 -193 24 -193 14 0 -8 14 -26 48 -63 l24 -25 -89 7 c-74
6 -92 11 -112 31 -13 13 -29 24 -37 24 -7 0 -14 4 -16 8 -3 7 -167 42 -196 42
-7 0 -12 -11 -12 -24 0 -21 6 -24 55 -31 41 -5 56 -11 60 -26 4 -10 12 -19 19
-19 7 0 24 -11 37 -23 13 -13 33 -29 44 -36 l20 -12 -20 5 c-64 16 -78 18
-109 12 -20 -4 -37 -15 -44 -29 -10 -22 -10 -22 -9 3 2 59 -5 76 -40 103 -20
15 -45 27 -56 27 -10 0 -27 10 -36 21 -14 18 -31 23 -94 27 -55 3 -77 1 -77
-7 0 -7 -9 -31 -20 -53 -26 -53 -26 -112 -2 -130 25 -18 35 -58 15 -58 -12 0
-14 -8 -10 -35 l6 -35 -55 0 c-30 0 -54 5 -54 10 0 14 -87 13 -92 -1 -3 -10
-84 -43 -135 -56 -36 -8 -30 -43 6 -43 16 0 31 4 33 10 5 17 154 35 180 22 18
-8 19 -11 6 -11 -10 -1 -18 -5 -18 -10 0 -5 -11 -12 -25 -15 -14 -4 -25 -10
-25 -14 0 -4 -16 -6 -36 -4 -24 3 -39 0 -45 -9 -14 -22 -11 -37 9 -42 16 -4
16 -5 0 -6 -12 -1 -18 -9 -18 -27 0 -14 4 -23 9 -19 6 3 7 -9 4 -30 -5 -30 -3
-35 13 -35 11 1 28 11 38 24 18 22 21 22 49 8 28 -14 29 -16 13 -28 -10 -7
-15 -17 -11 -23 8 -15 58 -14 72 0 9 9 10 7 6 -10 -5 -20 -3 -21 89 -21 65 0
100 -4 113 -14 18 -13 17 -15 -18 -30 -20 -8 -40 -22 -43 -29 -4 -12 -22 -14
-88 -10 -79 5 -84 4 -108 -20 -15 -15 -29 -35 -33 -46 -5 -17 -2 -19 37 -14
42 6 43 6 25 -14 -9 -11 -17 -34 -17 -51 0 -30 -2 -32 -39 -32 -65 0 -101 -11
-101 -30 0 -15 12 -18 81 -22 66 -4 85 -9 96 -24 9 -13 26 -19 51 -19 27 0 37
-5 40 -17 2 -12 -3 -18 -15 -18 -23 0 -68 -45 -78 -77 -5 -18 -14 -23 -43 -23
-66 -1 -191 -42 -236 -77 -16 -13 -34 -39 -41 -59 -7 -21 -15 -32 -19 -25 -13
20 -26 11 -26 -18 0 -31 18 -41 75 -41 17 0 44 -9 60 -20 25 -17 47 -20 133
-20 61 0 102 -4 102 -10 0 -5 10 -11 23 -11 20 -1 20 -2 2 -6 -11 -3 -25 -9
-31 -14 -7 -6 -71 -11 -142 -12 -131 -3 -162 -11 -162 -43 0 -11 -20 -14 -90
-14 -53 0 -90 -4 -90 -10 0 -5 -9 -10 -19 -10 -38 0 -110 -94 -88 -116 3 -3
30 1 61 9 31 9 56 14 56 12 0 -2 -15 -12 -34 -23 -33 -20 -35 -24 -72 -149 -2
-7 -15 -13 -29 -13 -18 0 -25 -5 -25 -20 0 -16 7 -20 31 -20 39 0 109 -20 109
-32 0 -4 6 -8 14 -8 16 0 11 -33 -11 -65 -7 -11 -13 -27 -13 -36 0 -10 -4 -19
-9 -21 -5 -1 -11 -32 -12 -68 l-3 -65 -58 3 c-34 2 -58 0 -58 -6 0 -6 -19 -13
-42 -17 -24 -4 -54 -12 -68 -18 -14 -6 -27 -11 -30 -12 -42 -14 -60 -27 -60
-45 0 -16 7 -20 35 -20 22 0 38 6 41 15 7 17 77 39 102 32 10 -3 7 -5 -9 -6
-14 0 -28 -4 -32 -7 -9 -9 4 -34 18 -34 11 0 12 -21 8 -97 -3 -54 -8 -100 -10
-103 -3 -3 -14 6 -24 20 -46 58 -113 120 -131 120 -16 0 -18 -9 -18 -79 0 -90
-9 -81 103 -96 26 -3 47 -10 47 -14 0 -5 20 -14 45 -20 51 -13 53 -18 26 -53
-11 -13 -23 -37 -26 -51 -7 -27 -8 -27 -101 -27 l-94 0 0 -429 0 -430 26 -20
c30 -23 69 -28 77 -8 2 7 33 19 68 26 35 8 66 17 69 21 3 4 24 9 48 13 37 4
42 3 42 -14 0 -25 31 -25 52 1 17 19 17 19 46 -8 16 -15 32 -37 36 -50 4 -12
12 -22 17 -22 13 0 11 -28 -3 -32 -20 -7 3 -30 24 -25 18 5 19 2 15 -22 -3
-16 -9 -51 -13 -80 -6 -47 -5 -51 14 -51 16 0 21 -9 26 -45 6 -36 11 -45 27
-45 10 0 19 6 19 13 1 6 16 22 35 34 l35 22 15 -22 c8 -12 15 -27 15 -34 0 -7
9 -13 21 -13 18 0 20 -4 14 -30 -9 -41 4 -120 20 -120 8 0 16 -13 20 -29 3
-16 16 -33 30 -39 14 -7 25 -18 25 -27 0 -10 10 -15 31 -15 27 0 30 3 24 23
-4 12 -17 43 -30 68 -32 64 -41 109 -22 109 7 0 22 9 33 21 10 12 36 28 56 36
21 8 40 24 44 35 4 15 12 18 29 14 17 -4 24 -1 30 17 6 18 9 15 15 -23 5 -25
9 -71 9 -102 1 -32 6 -58 11 -58 6 0 10 -9 10 -20 0 -11 5 -20 10 -20 6 0 10
-11 10 -25 0 -14 5 -25 10 -25 6 0 10 5 10 10 0 6 11 10 24 10 23 0 25 4 30
68 12 159 25 262 35 279 6 10 11 12 11 6 0 -19 31 -16 46 5 11 14 14 -5 16
-128 3 -203 2 -224 -11 -228 -17 -6 -13 -30 9 -52 25 -25 60 -26 60 -2 0 10 9
25 20 35 19 16 20 16 22 -1 2 -24 0 -42 -6 -74 -4 -23 -2 -28 14 -28 10 0 24
8 29 18 12 20 11 23 16 -55 l4 -62 -35 -7 c-19 -3 -34 -10 -34 -14 0 -4 -16
-11 -35 -14 -26 -5 -35 -12 -35 -26 0 -13 -7 -20 -20 -20 -11 0 -20 -6 -20
-14 0 -8 -4 -16 -9 -18 -5 -1 -13 -15 -16 -30 -9 -37 16 -38 47 -3 12 14 28
25 35 25 7 0 13 4 13 10 0 12 65 40 91 40 11 0 19 5 19 10 0 19 29 10 36 -12
9 -30 34 -54 42 -41 13 20 40 10 46 -17 3 -17 13 -30 26 -33 12 -3 24 -15 27
-26 7 -26 63 -31 63 -6 0 8 -4 15 -9 15 -5 0 -12 23 -16 50 -5 33 -12 50 -21
50 -8 0 -14 10 -14 25 0 14 4 25 9 25 5 0 12 10 14 23 3 14 5 8 6 -15 0 -20 7
-43 15 -50 7 -8 17 -24 20 -36 4 -12 12 -22 17 -22 5 0 9 -7 9 -16 0 -12 7
-15 30 -12 25 4 34 0 47 -23 18 -30 51 -49 88 -49 13 0 25 -6 28 -12 10 -29
42 11 61 75 13 47 25 68 38 73 15 4 18 11 13 27 -4 12 -9 38 -12 57 -4 31 -3
33 10 18 8 -10 22 -18 31 -18 9 0 31 -13 49 -30 18 -16 40 -30 50 -30 11 0 17
-8 17 -23 0 -12 9 -28 20 -35 11 -7 20 -22 20 -33 0 -31 37 -59 77 -59 30 0
35 4 58 53 15 32 28 87 35 147 6 52 12 94 13 95 1 0 16 10 33 22 21 14 35 18
45 12 8 -5 35 -9 61 -9 50 0 88 24 88 54 0 8 5 18 10 21 6 3 10 24 10 46 0 21
3 39 8 39 4 0 7 23 8 51 0 28 5 54 11 57 5 4 15 16 21 27 10 17 11 16 6 -11
-4 -21 1 -45 15 -73 11 -24 23 -64 26 -89 12 -84 13 -85 55 -78 22 3 41 2 45
-4 14 -23 70 -10 110 25 22 19 45 35 52 35 7 0 13 4 13 10 0 5 11 20 25 34 16
16 25 20 25 11 0 -8 8 -20 18 -27 10 -7 22 -25 26 -40 3 -16 11 -28 16 -28 6
0 10 -7 10 -15 0 -8 5 -15 10 -15 6 0 10 -9 10 -20 0 -11 6 -23 14 -26 8 -3
20 -25 27 -50 7 -24 19 -44 25 -44 13 0 24 -22 24 -49 0 -9 9 -23 19 -31 11
-7 23 -31 26 -52 4 -22 12 -38 20 -38 9 0 16 -21 20 -67 4 -38 15 -86 25 -108
11 -22 22 -52 25 -67 4 -16 11 -28 15 -28 4 0 13 -20 20 -45 7 -25 16 -45 20
-45 4 0 12 -18 19 -39 12 -40 0 -177 -18 -212 -5 -8 -12 -158 -16 -332 -6
-246 -10 -317 -20 -317 -10 0 -14 -61 -18 -272 -7 -386 -26 -819 -36 -843 -12
-26 -31 -385 -31 -582 0 -90 -4 -154 -10 -158 -6 -3 -10 -35 -10 -71 0 -35 -5
-73 -12 -84 -14 -23 4 -134 26 -156 7 -7 16 -44 20 -83 4 -39 11 -73 17 -76 5
-4 9 -28 9 -56 0 -27 5 -49 10 -49 6 0 10 -38 10 -95 0 -57 -4 -95 -10 -95 -6
0 -10 -33 -10 -80 0 -44 -4 -80 -9 -80 -5 0 -12 -61 -16 -135 -5 -96 -11 -135
-20 -135 -13 0 -25 -183 -25 -402 0 -79 -4 -128 -10 -128 -5 0 -10 -9 -10 -20
0 -11 -4 -20 -9 -20 -5 0 -11 -13 -14 -30 -4 -16 -16 -39 -27 -50 -11 -11 -20
-27 -20 -35 0 -9 -9 -25 -20 -37 -13 -14 -20 -36 -20 -60 0 -27 -4 -38 -15
-38 -9 0 -20 -11 -25 -24 -8 -23 -27 -50 -57 -81 -7 -8 -13 -21 -13 -29 0 -9
-4 -16 -8 -16 -4 0 -13 -26 -20 -58 -7 -31 -16 -61 -20 -67 -23 -32 -135 -116
-161 -121 -16 -4 -32 -12 -35 -20 -3 -8 -19 -14 -36 -14 -17 0 -39 -9 -50 -20
-11 -11 -29 -20 -40 -20 -11 0 -20 -4 -20 -10 0 -5 -11 -10 -25 -10 -14 0 -25
-4 -25 -9 0 -5 -15 -12 -32 -15 -92 -18 -200 -38 -258 -46 -36 -6 -66 -14 -68
-18 -1 -5 -14 -7 -27 -4 -14 2 -25 0 -25 -6 0 -6 -16 -14 -35 -18 -20 -3 -35
-12 -35 -20 0 -8 -10 -14 -24 -14 -13 0 -29 -7 -36 -15 -7 -8 -22 -15 -34 -15
-11 0 -40 -18 -64 -40 -23 -21 -51 -42 -62 -45 -11 -4 -20 -12 -20 -20 0 -8
-10 -17 -22 -21 -13 -4 -25 -10 -28 -13 -3 -4 -22 -15 -43 -24 -20 -10 -37
-22 -37 -27 0 -6 -7 -10 -15 -10 -8 0 -15 -4 -15 -10 0 -5 -9 -10 -20 -10 -10
0 -30 -11 -44 -25 -14 -14 -32 -25 -41 -25 -8 0 -15 -9 -15 -20 0 -11 -7 -20
-15 -20 -8 0 -15 -4 -15 -10 0 -5 -6 -10 -13 -10 -19 0 -109 -97 -137 -148
-19 -33 -22 -47 -14 -60 12 -18 74 -30 74 -14 0 5 30 15 68 22 37 7 72 17 77
24 17 19 72 35 83 24 15 -15 153 11 178 34 11 10 30 18 42 18 11 0 36 16 55
35 19 19 43 35 53 35 10 0 39 16 63 35 24 19 50 35 57 35 8 0 14 9 14 20 0 11
7 20 15 20 8 0 15 5 15 11 0 5 13 15 30 20 19 7 30 18 30 29 0 13 10 21 32 26
18 3 38 13 44 22 7 9 33 17 68 20 31 2 56 8 56 12 0 4 11 5 25 2 15 -2 25 0
25 7 0 6 11 11 25 11 43 0 165 24 165 32 0 4 11 8 25 8 14 0 25 5 25 10 0 6
28 10 65 10 36 0 65 4 65 10 0 5 6 7 14 4 8 -3 17 -1 21 5 3 6 17 11 31 11 13
0 24 4 24 9 0 4 11 6 25 3 14 -2 25 0 25 7 0 5 7 8 15 5 16 -6 95 25 95 38 0
4 10 8 23 8 12 0 28 9 35 20 7 11 19 20 27 20 8 0 15 5 15 10 0 6 5 10 12 10
16 0 59 50 52 61 -3 5 1 9 9 9 8 0 18 11 21 25 4 14 11 25 16 25 6 0 10 7 10
15 0 8 4 15 9 15 5 0 12 8 15 18 3 9 19 23 35 30 18 8 31 22 33 35 2 12 13 26
26 32 12 5 22 18 22 27 0 10 9 26 20 35 11 10 20 24 20 31 0 26 25 5 28 -24 2
-16 10 -34 19 -41 11 -9 16 -39 20 -120 4 -87 10 -118 29 -157 13 -28 24 -56
24 -63 0 -7 4 -13 10 -13 5 0 12 -11 16 -25 4 -15 13 -25 24 -25 19 0 30 -19
30 -51 0 -12 7 -19 19 -19 22 0 31 -40 31 -137 0 -34 4 -64 9 -68 5 -3 17 -29
27 -58 9 -28 20 -54 23 -57 3 -3 17 -26 30 -52 l24 -48 53 0 c41 0 54 4 54 15
0 7 6 18 13 22 8 4 19 29 25 55 15 58 16 208 2 208 -5 0 -10 14 -10 30 0 20
-5 30 -15 30 -12 0 -15 16 -15 85 0 83 1 85 20 75 11 -6 20 -15 20 -19 0 -5
20 -15 45 -22 25 -7 45 -17 45 -21 0 -4 7 -8 15 -8 24 0 65 -22 65 -35 0 -12
43 -25 83 -25 11 0 27 -9 36 -19 16 -18 81 -42 130 -47 31 -4 131 -111 131
-141 0 -13 5 -23 10 -23 6 0 10 -7 10 -15 0 -8 11 -17 25 -21 15 -4 25 -13 25
-24 0 -9 9 -25 20 -35 11 -10 20 -15 20 -11 0 3 12 -8 28 -25 47 -55 97 -99
110 -99 6 0 12 -5 12 -10 0 -7 25 -10 68 -8 l67 3 3 44 c2 24 -1 56 -7 70 -5
14 -12 38 -15 53 -4 16 -11 27 -18 25 -6 -1 -14 9 -18 23 -4 14 -12 24 -18 23
-6 -1 -13 11 -17 27 -4 17 -13 30 -21 30 -9 0 -12 5 -9 10 3 6 1 10 -4 10 -6
0 -11 7 -11 15 0 8 -9 15 -20 15 -13 0 -20 7 -20 19 0 11 -9 22 -19 26 -11 3
-24 19 -29 35 -6 15 -19 37 -29 48 -10 11 -28 31 -39 44 l-22 23 42 -4 c22 -2
44 -7 47 -12 3 -5 33 -12 67 -15 34 -4 62 -10 62 -14 0 -3 43 -12 95 -19 52
-8 95 -17 95 -21 0 -4 47 -10 105 -12 95 -5 111 -9 180 -43 41 -21 75 -41 75
-46 0 -5 5 -9 10 -9 15 0 120 -80 120 -91 0 -5 10 -9 23 -9 13 0 42 -16 64
-35 23 -19 50 -35 62 -35 11 0 25 -9 32 -21 7 -14 17 -19 30 -16 10 3 19 1 19
-3 0 -5 15 -14 34 -20 19 -6 37 -17 39 -24 3 -8 28 -17 56 -21 28 -4 53 -11
57 -16 8 -14 74 -10 90 5 18 19 18 61 -1 83 -8 10 -31 37 -51 60 -19 23 -45
45 -56 49 -11 3 -62 39 -115 80 -52 41 -103 74 -114 74 -10 0 -32 13 -47 30
-16 16 -36 30 -44 30 -20 0 -58 20 -85 45 -12 11 -33 29 -48 40 -14 11 -35 28
-47 37 -12 10 -32 18 -45 18 -12 0 -23 5 -23 10 0 6 -9 10 -20 10 -11 0 -20 4
-20 9 0 5 -24 14 -52 21 -29 6 -63 16 -75 22 -12 6 -33 8 -47 6 -14 -3 -26 -2
-26 2 0 4 -46 10 -101 13 -68 4 -105 11 -113 20 -6 8 -38 20 -71 27 -33 7 -68
21 -78 31 -10 11 -31 19 -47 19 -19 0 -33 7 -40 20 -8 14 -21 20 -45 20 -24 0
-39 6 -47 20 -7 11 -24 20 -38 20 -17 0 -40 16 -73 50 -41 43 -50 60 -60 112
-8 43 -16 62 -28 65 -10 3 -20 17 -24 31 -3 14 -14 33 -24 41 -10 9 -21 26
-25 39 -4 12 -14 22 -23 22 -8 0 -17 9 -20 20 -3 11 -9 20 -13 20 -4 0 -10 20
-12 44 -4 30 -14 53 -32 71 -14 14 -26 30 -26 36 0 6 -12 36 -27 67 -20 42
-28 77 -31 132 -3 41 -8 77 -12 80 -4 3 -11 92 -17 198 -6 129 -13 196 -21
201 -23 14 -44 631 -21 639 5 2 9 19 9 39 0 19 7 41 15 49 9 9 15 34 15 60 0
30 5 46 15 50 12 5 15 27 15 110 0 63 -4 104 -10 104 -6 0 -10 45 -10 116 0
71 -4 113 -10 109 -6 -3 -8 71 -7 200 1 151 -1 208 -10 213 -20 12 -23 68 -32
451 -6 261 -11 366 -19 369 -15 5 -17 252 -2 252 6 0 10 33 10 80 0 44 -4 80
-9 80 -12 0 -20 76 -27 260 -3 85 -9 164 -14 175 -5 11 -11 103 -14 205 -2
102 -8 202 -11 224 -7 38 10 116 25 116 4 0 11 16 14 35 4 19 12 40 19 47 7 7
20 39 30 70 10 32 22 60 27 63 6 4 10 37 10 76 0 39 4 69 10 69 6 0 10 8 10
18 0 21 22 72 32 72 3 0 9 13 13 30 4 16 11 32 16 35 5 4 9 16 9 28 0 16 13
29 45 46 25 13 45 29 45 36 0 7 9 15 20 18 14 4 20 14 20 35 0 17 5 32 12 34
6 2 13 37 16 86 3 58 8 82 18 82 7 0 16 -10 20 -22 4 -13 10 -25 15 -28 13 -9
16 -160 3 -168 -9 -6 -34 -64 -34 -78 0 -2 10 -4 22 -4 19 0 78 53 78 70 0 4
9 18 21 31 18 21 21 22 30 7 13 -24 63 -32 117 -18 38 9 52 18 72 51 14 22 32
39 42 39 22 0 28 13 38 83 4 28 8 44 9 35 1 -18 35 -32 62 -26 11 2 14 -12 14
-69 0 -39 4 -75 8 -79 4 -4 25 -3 47 3 38 10 40 9 40 -13 0 -36 43 -32 77 6
14 17 36 30 49 30 12 0 25 6 27 13 3 6 6 -7 6 -30 1 -47 9 -73 22 -73 5 0 9 7
9 15 0 8 4 15 9 15 5 0 12 18 16 40 4 25 12 40 21 40 8 0 14 6 14 13 0 19 42
53 73 59 23 4 27 2 27 -17 0 -18 -4 -22 -19 -18 -35 9 -81 -51 -81 -104 0 -16
-5 -34 -12 -41 -9 -9 -7 -13 5 -18 9 -3 17 -15 17 -26 0 -11 8 -22 20 -25 11
-3 20 -12 20 -19 0 -8 3 -14 8 -14 4 0 12 -10 17 -22 6 -13 24 -26 43 -30 17
-5 32 -13 32 -18 0 -19 65 -11 78 10 7 11 19 20 27 20 8 0 15 7 15 15 0 8 5
15 10 15 6 0 18 13 28 29 14 24 21 27 41 20 18 -7 29 -4 53 16 30 25 41 29 68
25 23 -3 29 -21 23 -67 -6 -49 12 -103 35 -103 23 0 100 52 111 75 9 18 10 17
10 -9 1 -27 3 -28 35 -23 36 6 59 24 89 70 9 15 24 27 31 27 16 0 26 30 26 78
l0 32 20 -20 c21 -21 70 -28 70 -10 0 6 6 10 14 10 15 0 20 12 31 73 4 23 11
37 20 37 8 0 15 7 15 15 0 8 -6 15 -13 15 -8 0 -19 18 -26 40 -12 42 -55 90
-81 90 -8 0 -30 16 -49 35 -18 18 -47 39 -63 46 -24 10 -27 14 -15 21 9 4 19
23 22 41 4 17 14 46 22 64 l15 32 26 -28 c15 -15 38 -43 52 -62 58 -79 120
-130 120 -97 0 26 -23 144 -30 153 -16 21 -21 65 -7 65 7 0 22 15 32 33 l20
32 2 -55 c6 -137 14 -180 32 -180 10 0 22 9 27 20 6 13 8 -29 6 -115 -3 -131
-3 -135 17 -135 12 0 21 5 21 10 0 6 9 10 20 10 11 0 20 4 20 9 0 5 22 33 50
61 51 53 69 100 55 143 -4 12 -11 58 -14 102 -4 51 -10 80 -18 80 -25 0 -23
15 6 44 17 17 31 37 31 45 0 9 7 12 20 9 11 -3 20 -9 20 -14 0 -5 9 -9 20 -9
11 0 20 -4 20 -10 0 -5 11 -10 25 -10 14 0 28 -7 31 -15 4 -8 12 -15 20 -15 8
0 14 -9 14 -20 0 -13 7 -20 19 -20 17 0 20 -10 27 -80 l7 -80 33 0 c24 0 34 5
34 15 0 8 -4 15 -9 15 -5 0 -15 29 -22 65 -7 36 -16 65 -19 65 -4 0 -12 25
-19 55 -10 43 -17 55 -31 55 -19 0 -90 29 -100 41 -3 3 -13 8 -22 12 -19 7
-22 37 -9 71 7 19 8 19 14 -3 3 -12 15 -25 26 -28 12 -3 21 -9 21 -14 0 -23
37 -49 68 -49 18 0 42 -5 54 -11 22 -12 228 8 228 23 0 20 50 6 68 -19 24 -34
32 -79 39 -200 4 -84 6 -93 24 -93 17 0 19 7 19 70 0 55 3 70 15 70 17 0 35
30 35 59 0 12 6 20 13 18 15 -3 22 52 8 66 -6 6 -11 28 -11 48 0 24 -5 39 -15
43 -8 3 -15 12 -15 20 0 8 -16 20 -36 28 -30 11 -35 16 -33 43 2 44 -22 95
-49 102 -12 3 -50 3 -82 1 -33 -2 -60 0 -60 4 0 5 5 6 10 3 6 -3 10 -2 10 3 0
5 23 14 51 20 28 7 58 21 68 33 26 32 48 16 55 -42 4 -27 12 -49 18 -49 25 0
88 24 89 34 1 24 18 -31 18 -61 1 -30 4 -33 31 -33 28 0 30 2 30 39 0 22 4 43
10 46 15 9 13 75 -2 75 -9 0 -8 3 2 10 11 7 15 28 15 79 0 38 2 66 5 61 9 -14
99 -50 124 -50 20 0 26 5 26 22 0 18 10 12 60 -38 32 -32 59 -65 60 -71 0 -7
11 -13 24 -13 20 0 24 6 30 42 4 23 3 44 -3 47 -5 3 -12 23 -16 44 -5 25 -13
37 -24 37 -9 0 -29 7 -45 15 -15 8 -34 15 -41 15 -7 0 -15 7 -19 15 -3 10 -20
15 -48 16 -25 1 -33 4 -20 6 20 4 23 9 17 30 -3 13 -15 34 -25 46 -11 11 -20
24 -20 28 0 8 -27 42 -75 92 l-30 32 21 23 c12 12 31 22 43 22 12 0 21 6 21
15 0 12 17 15 90 15 50 0 90 3 90 6 0 21 -42 33 -114 34 l-78 0 5 28 c5 23 -4
36 -65 95 -38 37 -73 67 -77 67 -5 0 -21 11 -37 25 -15 13 -41 27 -56 30 -15
4 -28 11 -28 16 0 5 -15 9 -33 9 -18 0 -42 7 -53 15 -17 13 -16 14 16 5 19 -6
61 -10 94 -10 48 0 57 3 52 15 -4 12 4 15 42 15 27 0 52 -4 58 -9 5 -5 18 -11
29 -14 18 -4 18 -5 -2 -6 -16 -1 -23 -7 -23 -21 0 -14 10 -22 38 -29 33 -9 65
-24 183 -87 15 -8 32 -21 39 -29 7 -8 18 -15 24 -15 7 0 27 -13 46 -30 19 -16
40 -29 46 -30 7 0 14 -7 18 -15 3 -8 12 -15 20 -15 8 0 17 -9 21 -19 5 -17 32
-31 63 -31 19 0 14 48 -8 70 -11 11 -23 20 -28 20 -4 0 -16 11 -26 25 -10 14
-25 25 -32 25 -7 0 -17 6 -21 13 -4 7 -25 21 -45 30 -20 10 -38 21 -40 25 -3
7 -158 86 -170 87 -21 0 -17 15 4 15 21 0 27 6 32 32 4 19 2 34 -5 38 -16 10
-381 22 -388 13 -3 -4 -20 -8 -38 -8 -28 0 -32 3 -35 32 -2 19 1 33 7 33 5 1
24 18 40 39 31 39 156 141 173 141 5 0 15 7 22 15 7 8 27 17 46 21 27 5 34 11
34 30 0 22 -4 24 -55 24 -32 0 -55 -4 -55 -11 0 -5 -4 -7 -10 -4 -5 3 -10 1
-10 -4 0 -6 -16 -11 -35 -11 -19 0 -35 4 -35 9 0 10 -77 31 -114 31 -14 0 -26
5 -26 12 0 6 -3 8 -7 5 -7 -7 -53 39 -53 54 0 5 -9 9 -21 9 -11 0 -27 6 -35
14 -19 19 -18 27 3 19 13 -5 15 -2 10 16 -4 17 9 8 48 -33 39 -40 62 -56 81
-56 25 0 26 2 19 36 -10 57 -26 82 -61 99 -18 8 -35 19 -38 24 -3 4 -27 14
-53 22 -27 7 -77 28 -113 46 -36 18 -73 33 -82 33 -15 0 -16 9 -12 73 3 39 9
81 14 92 4 11 13 49 19 84 6 36 14 67 19 70 5 3 12 15 16 25 11 32 -39 68 -89
64 -39 -3 -41 0 -36 32 2 16 51 12 57 -5 4 -8 12 -15 18 -15 7 0 22 -9 34 -20
12 -12 22 -17 22 -13 0 4 5 2 12 -5 15 -15 68 -16 68 -1 0 7 6 17 14 23 11 9
12 22 4 71 -8 50 -14 63 -36 73 -14 6 -32 12 -39 12 -7 0 -13 4 -13 9 0 4 -28
11 -62 15 -158 16 -177 19 -172 27 3 5 25 9 50 9 32 0 44 4 44 15 0 8 -7 15
-16 15 -18 0 -49 28 -41 37 3 3 25 -9 49 -26 41 -30 88 -41 88 -21 0 6 -4 10
-8 10 -4 0 -13 14 -19 30 -6 17 -7 30 -2 30 5 0 9 -6 9 -13 0 -7 9 -18 20 -25
11 -7 20 -19 20 -27 0 -10 11 -15 35 -15 28 0 35 4 35 19 0 15 10 20 50 26 66
9 69 35 6 54 -33 9 -46 19 -50 37 -8 31 -54 84 -73 84 -20 0 -43 25 -43 47 0
30 -21 49 -70 63 l-45 14 50 12 c77 19 94 17 105 -10 5 -15 20 -27 39 -31 17
-4 31 -11 31 -16 0 -12 11 -11 30 1 10 6 11 13 5 18 -6 4 -16 20 -23 36 -14
31 -5 45 26 46 10 0 12 8 7 30 l-7 30 91 0 c74 0 91 3 91 15 0 8 -8 15 -17 16
-10 0 -5 5 11 9 17 6 36 5 47 0 24 -13 139 -13 139 0 0 6 -7 10 -15 10 -9 0
-18 6 -21 14 -3 8 -28 20 -55 26 -61 15 -282 -5 -304 -27 -19 -19 -35 -16 -35
6 0 21 -19 31 -56 31 -13 0 -24 4 -24 10 0 5 -14 13 -31 17 -31 9 -31 9 -8 19
36 17 93 34 112 34 9 0 17 3 17 8 0 4 33 6 73 4 60 -3 77 -1 91 13 16 16 16
18 -10 31 -15 8 -57 14 -100 14 -43 0 -74 4 -74 10 0 6 25 8 70 4 l70 -7 0 27
c0 25 -3 26 -49 26 -34 0 -51 4 -55 15 -6 17 -36 21 -36 5 0 -15 -67 -12 -73
3 -6 17 -178 11 -190 -7 -4 -6 -6 -21 -4 -33 3 -17 -1 -23 -14 -23 -13 0 -19
7 -19 23 0 14 -12 30 -35 45 -34 21 -46 42 -25 42 6 0 10 11 10 25 0 24 -3 25
-54 25 -30 0 -56 -5 -58 -11 -2 -5 -11 -7 -20 -4 -15 6 -15 9 -3 21 7 8 16 14
19 14 14 0 76 73 76 90 0 22 -20 26 -38 8 -9 -9 -12 -8 -12 5 0 13 9 17 45 17
29 0 45 4 45 13 0 25 -17 34 -72 41 -32 4 -58 12 -58 18 0 6 -27 8 -70 6 -39
-2 -71 0 -73 3 -1 3 -23 8 -48 11 l-47 5 -6 -55 c-4 -31 -11 -60 -15 -66 -5
-6 -11 -22 -14 -36 -4 -24 -4 -24 -6 3 -1 20 -7 31 -21 34 -11 3 -20 9 -20 13
0 4 -13 13 -30 20 -16 7 -30 15 -30 19 0 4 -16 15 -35 25 -23 13 -38 30 -46
55 -6 20 -15 41 -20 47 -5 6 -16 46 -25 90 -9 43 -20 84 -24 89 -4 6 -13 36
-20 67 l-13 57 -86 1 c-235 0 -334 5 -338 18 -4 9 23 12 111 12 71 0 116 4
116 10 0 6 -7 10 -15 10 -8 0 -15 4 -15 9 0 21 -192 32 -225 14 -15 -9 -27 -2
-72 42 -29 30 -53 56 -53 59 0 3 41 3 91 -1 l91 -6 -4 24 c-3 26 -40 37 -124
38 -40 1 -42 2 -48 39 -3 20 -6 51 -6 68 0 16 -4 34 -9 40 -5 5 -11 25 -13 44
-2 24 -9 36 -23 40 -20 5 -75 38 -85 51 -3 3 -22 12 -42 19 -39 14 -40 16 -54
128 -6 49 -9 54 -37 59 l-29 6 36 34 c42 40 45 53 11 53 -18 0 -25 5 -25 19 0
11 -4 22 -9 25 -4 3 -11 28 -15 56 -9 64 -15 80 -31 80 -8 0 -19 16 -26 35 -7
19 -16 35 -20 35 -4 0 -11 9 -14 20 -8 26 -48 70 -63 70 -22 0 -31 -39 -26
-106 4 -50 3 -65 -5 -54 -6 8 -11 28 -11 43 0 17 -7 30 -17 34 -27 10 -33 23
-33 79 0 33 -5 56 -15 64 -8 7 -15 19 -15 26 0 19 -74 18 -94 -1 -9 -9 -33
-15 -60 -15 -49 0 -57 -11 -30 -41 14 -16 13 -18 -15 -24 -17 -4 -31 -11 -31
-16 0 -5 -9 -9 -20 -9 -12 0 -33 -11 -48 -25 -15 -14 -32 -25 -39 -25 -6 0
-20 -11 -31 -25 -11 -14 -25 -25 -31 -25 -9 0 -14 -29 -15 -90 0 -12 -8 -15
-28 -12 -25 4 -28 8 -28 43 0 22 -4 39 -9 39 -5 0 -11 12 -14 28 -7 32 -54 92
-73 92 -8 0 -14 4 -14 9 0 6 -21 13 -46 17 -35 5 -47 12 -54 30 -5 13 -16 24
-24 24 -7 0 -19 6 -25 14 -20 23 -119 66 -154 66 -23 -1 -41 -10 -64 -35z
m128 -852 c67 3 126 10 132 16 6 6 42 11 79 11 66 0 68 1 68 25 0 20 5 25 25
25 20 0 25 5 25 24 0 19 4 23 20 19 11 -3 35 2 54 11 46 22 53 20 61 -11 3
-15 12 -31 18 -35 18 -12 267 -10 268 2 1 6 2 14 3 19 0 5 4 13 9 17 4 4 7 56
7 116 l0 108 65 0 c58 0 65 2 65 20 0 13 7 20 20 20 19 0 20 -7 20 -100 l0
-100 -25 0 c-14 0 -25 -3 -25 -6 0 -17 36 -104 42 -104 5 0 8 -45 8 -100 0
-99 0 -100 24 -100 13 0 26 6 28 12 5 15 29 -7 64 -58 27 -40 28 -44 13 -44
-6 0 -39 -22 -73 -48 -33 -27 -69 -51 -78 -55 -10 -3 -18 -11 -18 -17 0 -5 -5
-10 -11 -10 -9 0 -80 -49 -119 -82 -8 -7 -25 -19 -38 -25 -13 -7 -46 -31 -72
-53 -26 -22 -53 -40 -59 -40 -6 0 -11 -2 -11 -4 0 -2 -3 -12 -7 -21 -5 -15 -1
-16 38 -10 24 4 49 11 54 15 6 4 44 13 85 20 41 6 82 15 91 20 9 5 66 17 125
26 60 10 112 22 116 28 4 7 42 10 93 9 78 -1 88 -3 109 -26 13 -14 26 -29 27
-34 7 -16 65 -51 97 -58 22 -4 32 -12 32 -26 0 -18 9 -19 160 -19 100 0 160 4
160 10 0 6 20 10 45 10 33 0 45 -4 45 -15 0 -8 4 -15 8 -15 4 0 13 -26 20 -58
7 -32 21 -77 32 -100 11 -22 20 -45 20 -50 0 -5 13 -25 30 -43 16 -19 30 -37
30 -41 0 -4 8 -9 18 -12 14 -5 17 -14 14 -46 l-4 -40 -94 0 c-52 0 -94 -3 -94
-8 0 -4 12 -22 28 -39 15 -17 38 -45 52 -63 14 -18 32 -40 41 -49 24 -24 39
-57 39 -85 0 -21 5 -26 25 -26 13 0 35 -5 49 -11 36 -17 41 -97 9 -158 -13
-24 -23 -50 -23 -57 0 -8 -4 -14 -10 -14 -5 0 -10 -6 -10 -13 0 -8 -11 -36
-25 -62 -13 -27 -22 -51 -20 -53 2 -3 51 16 107 41 57 25 115 49 131 52 15 4
27 11 27 15 0 5 15 12 33 15 17 4 40 15 50 23 17 15 19 15 28 -1 6 -9 18 -17
29 -17 10 0 25 -7 34 -15 8 -8 20 -15 26 -15 6 0 27 -7 48 -17 20 -9 39 -17
42 -18 3 -1 18 -7 33 -13 16 -7 35 -12 43 -12 8 0 14 -7 14 -15 0 -8 -4 -15
-8 -15 -8 0 -32 -43 -32 -56 0 -7 36 4 70 20 23 11 26 10 26 -5 0 -26 -80 -33
-244 -22 -75 6 -138 9 -140 8 -5 -4 40 -48 98 -95 30 -24 70 -59 89 -77 18
-17 49 -42 67 -55 33 -23 34 -24 34 -95 0 -57 3 -73 14 -73 8 0 18 5 21 10 3
6 20 10 36 10 25 0 30 -5 36 -30 3 -16 9 -30 13 -30 4 0 11 -11 14 -24 7 -29
56 -86 73 -86 16 0 17 -12 1 -28 -7 -7 -13 -74 -16 -188 -5 -196 -6 -194 61
-194 36 0 37 -1 37 -34 0 -33 2 -35 45 -42 30 -4 45 -11 45 -21 0 -8 7 -21 15
-29 20 -20 22 -155 3 -151 -9 1 -14 -16 -16 -55 -2 -45 -7 -60 -23 -68 -22
-12 -69 -82 -69 -104 0 -8 -18 -27 -41 -43 -23 -15 -48 -36 -57 -45 -9 -10
-21 -18 -27 -18 -6 0 -26 -13 -45 -30 -19 -16 -41 -29 -47 -30 -7 0 -13 -4
-13 -8 0 -8 -142 -108 -168 -118 -1 -1 0 -9 4 -18 4 -11 10 -13 18 -7 6 5 45
14 86 21 41 6 82 15 91 20 9 5 66 17 125 26 60 10 111 21 114 25 10 14 133 27
169 17 20 -6 38 -13 41 -17 3 -4 30 -14 60 -24 59 -18 142 -57 122 -57 -7 0
-34 -17 -61 -37 -26 -21 -59 -45 -71 -53 -13 -8 -51 -35 -84 -60 -34 -25 -84
-61 -113 -80 -29 -19 -51 -39 -49 -45 1 -6 60 -10 149 -10 81 0 147 -3 147 -7
0 -5 34 -8 75 -8 73 0 75 -1 75 -25 0 -14 4 -25 8 -25 8 0 32 -86 32 -111 0
-5 -11 -9 -25 -9 -14 0 -25 4 -25 8 0 10 -158 37 -167 29 -3 -3 -8 -26 -10
-50 -5 -43 -7 -45 -44 -51 -22 -3 -39 -10 -39 -15 0 -6 -10 -13 -22 -17 -30
-9 -71 -52 -87 -92 -11 -25 -16 -30 -27 -21 -7 6 -35 9 -62 7 -58 -4 -64 1
-88 71 -10 28 -22 51 -26 51 -5 0 -8 7 -8 15 0 12 -17 15 -96 15 -64 0 -100
-4 -108 -13 -24 -24 -48 -116 -42 -160 3 -23 9 -66 12 -94 6 -53 7 -53 43 -54
20 0 29 -3 21 -6 -8 -3 -18 -11 -22 -17 -4 -5 -44 -13 -90 -16 l-83 -5 -9 -42
c-8 -38 -13 -43 -42 -49 -18 -3 -48 -1 -65 5 -18 6 -33 11 -34 11 -1 0 -16
-13 -32 -29 -30 -29 -76 -106 -88 -148 -4 -16 -17 -23 -45 -28 -22 -4 -40 -10
-40 -15 0 -4 -13 -10 -30 -13 -16 -4 -30 -12 -30 -19 0 -27 180 -218 205 -218
8 0 15 -4 15 -9 0 -5 3 -16 6 -24 4 -11 -1 -13 -19 -10 -24 5 -25 3 -32 -81
-7 -87 -11 -94 -49 -80 -13 5 -16 24 -16 105 0 54 -4 99 -9 99 -4 0 -19 -8
-32 -19 -13 -10 -34 -21 -46 -25 -13 -4 -23 -11 -23 -16 0 -4 -17 -15 -37 -24
-21 -9 -53 -26 -71 -38 -19 -11 -47 -21 -63 -20 -16 0 -31 -4 -34 -9 -19 -29
-25 5 -25 136 l0 145 -126 0 c-117 0 -126 -1 -131 -20 -4 -14 -14 -20 -35 -20
-24 0 -32 -7 -48 -42 -16 -34 -20 -38 -20 -19 0 22 -3 23 -37 18 -20 -4 -40
-12 -45 -19 -5 -8 -8 3 -8 29 0 35 4 43 23 49 12 4 24 10 27 14 6 9 155 80
168 80 5 0 15 7 22 15 10 12 10 21 0 45 -7 16 -16 30 -20 30 -4 0 -15 16 -26
35 -10 19 -22 35 -26 35 -3 0 -9 8 -13 19 -3 10 -15 29 -26 42 -11 13 -24 30
-29 38 -6 11 -16 12 -61 1 -30 -7 -72 -20 -94 -30 -22 -10 -52 -23 -67 -29
l-28 -11 0 -120 0 -120 -125 0 -125 0 0 -40 c0 -22 -4 -40 -10 -40 -5 0 -10
-26 -11 -57 l-1 -58 -16 50 c-9 28 -19 52 -23 55 -4 3 -10 20 -14 38 -8 40
-20 41 -43 3 l-18 -29 -22 25 c-12 13 -22 29 -22 34 0 5 -58 9 -130 9 l-130 0
0 -59 c0 -79 -9 -121 -27 -121 -12 0 -14 -10 -11 -45 2 -28 -1 -46 -9 -49 -6
-3 -13 -15 -15 -28 -2 -14 -17 -30 -40 -43 -20 -11 -39 -28 -41 -37 -3 -10
-14 -18 -26 -18 -12 0 -21 -6 -21 -15 0 -8 -5 -14 -12 -12 -7 1 -16 -18 -22
-45 -6 -27 -15 -48 -21 -48 -6 0 -12 -58 -16 -142 -6 -140 -13 -188 -29 -188
-4 0 -11 -12 -15 -28 -3 -15 -17 -51 -31 -79 -13 -29 -27 -66 -30 -83 -4 -16
-10 -30 -15 -30 -14 0 -11 -108 4 -112 9 -4 14 -87 19 -347 6 -303 8 -346 25
-379 16 -33 18 -66 18 -297 1 -254 8 -355 26 -355 5 0 9 -137 9 -311 0 -299
10 -434 33 -450 5 -4 6 -47 3 -100 -4 -52 -9 -158 -12 -236 -5 -125 -4 -144
10 -149 14 -5 16 -26 16 -135 0 -119 -1 -129 -19 -129 -21 0 -31 -55 -31 -172
0 -61 -2 -68 -20 -68 -15 0 -20 -7 -20 -25 0 -49 23 -230 30 -235 4 -3 11
-117 16 -253 7 -192 12 -250 23 -256 10 -7 16 -61 25 -221 7 -124 16 -214 23
-218 5 -4 16 -25 23 -47 7 -22 19 -49 26 -60 7 -11 18 -39 25 -62 7 -24 15
-43 19 -43 4 0 11 -43 15 -95 l7 -95 44 0 c25 0 44 -5 44 -11 0 -23 33 -79 46
-79 8 0 14 -7 14 -15 0 -8 4 -15 9 -15 5 0 15 -23 22 -50 11 -42 27 -64 91
-130 54 -56 85 -80 102 -80 13 0 26 -7 30 -15 4 -13 -9 -15 -89 -15 -52 0 -95
-4 -95 -9 0 -5 12 -22 28 -37 15 -16 36 -39 47 -52 17 -21 17 -22 1 -16 -10 4
-22 17 -27 30 -7 21 -15 24 -56 24 -49 0 -104 16 -158 44 -16 9 -35 16 -42 16
-7 0 -28 16 -47 36 l-34 35 -151 -3 -151 -3 0 148 c0 91 -4 147 -10 147 -5 0
-10 16 -10 36 0 21 -4 33 -10 29 -6 -4 -10 8 -10 28 l0 34 -102 6 c-56 4 -106
11 -112 17 -5 5 -22 10 -36 10 -18 0 -29 -8 -38 -30 -8 -18 -21 -30 -32 -30
-13 0 -22 -11 -29 -37 -6 -21 -11 -44 -11 -50 0 -7 -7 -13 -16 -13 -8 0 -20
-13 -25 -30 -6 -16 -17 -30 -25 -30 -8 0 -14 -4 -14 -9 0 -5 -8 -12 -19 -16
-10 -3 -22 -20 -27 -38 -9 -29 -13 -32 -47 -29 l-37 4 0 -40 c0 -31 -4 -41
-20 -45 -14 -3 -20 -14 -20 -31 0 -25 -9 -31 -39 -26 -8 1 -20 -6 -27 -15 -7
-9 -21 -15 -30 -13 -18 3 -18 4 0 18 9 8 25 22 34 30 10 8 31 25 48 37 24 17
33 35 43 77 8 36 18 56 27 56 8 0 14 9 14 20 0 10 8 23 17 29 9 5 22 26 28 48
9 32 16 39 48 47 28 7 37 15 37 31 0 12 9 32 20 45 11 12 17 27 14 31 -3 5 -1
9 5 9 6 0 13 16 17 35 3 19 11 33 17 32 6 -1 15 17 20 41 6 24 16 42 23 42 11
0 14 27 14 128 0 210 21 526 35 534 9 6 15 51 20 147 6 104 11 141 21 145 22
8 20 474 -1 482 -9 4 -15 19 -15 38 0 17 -3 55 -6 84 -6 42 -10 52 -25 52 -17
0 -19 9 -19 88 1 210 21 746 29 751 9 7 31 391 31 544 0 76 3 97 14 97 11 0
15 52 20 283 16 657 44 1137 67 1137 5 0 9 16 9 35 0 19 -4 35 -9 35 -5 0 -15
23 -22 50 -7 28 -16 50 -19 50 -4 0 -15 27 -25 60 -10 33 -21 60 -25 60 -16 0
-30 84 -30 174 0 71 -3 96 -13 96 -7 0 -17 24 -24 61 -7 37 -20 69 -32 81 -12
10 -21 28 -21 38 0 11 -7 20 -15 20 -8 0 -17 14 -21 35 -5 28 -11 35 -30 35
-22 0 -24 4 -24 45 0 44 0 45 -34 45 l-34 0 6 45 c5 45 4 45 -26 45 -30 0 -31
2 -37 55 l-7 55 -139 0 -139 0 0 -59 c0 -50 -3 -59 -20 -64 -13 -3 -20 0 -20
9 0 8 -4 14 -10 14 -6 0 -10 38 -10 95 l0 95 -120 0 c-98 0 -122 -3 -126 -15
-4 -10 -20 -15 -45 -15 -34 0 -39 -3 -39 -24 0 -19 -4 -22 -25 -18 -14 2 -25
0 -25 -7 0 -32 25 -151 32 -151 4 0 8 -14 8 -31 0 -29 -2 -31 -26 -25 -74 19
-82 19 -89 -3 -3 -11 -23 -30 -45 -42 -21 -12 -44 -32 -51 -45 -7 -13 -16 -24
-19 -24 -4 0 -13 -19 -20 -43 -9 -35 -16 -43 -33 -42 -17 1 -23 9 -25 33 -3
29 -6 31 -57 37 -30 4 -60 13 -66 21 -8 10 -39 14 -115 14 l-103 0 -4 -27 c-4
-26 -4 -26 -6 5 0 21 -6 32 -16 32 -11 0 -15 12 -15 51 0 48 -1 50 -22 43 -13
-4 -34 -16 -48 -26 -22 -17 -25 -18 -28 -4 -3 13 -17 16 -68 16 l-66 0 3 40
c4 49 -4 57 -36 36 -24 -16 -25 -16 -25 4 0 17 -7 20 -40 20 l-40 0 0 220 0
220 -27 -6 c-16 -4 -30 -11 -33 -15 -8 -12 -23 -12 -202 -11 l-158 2 0 70 0
70 -55 0 c-33 0 -65 6 -79 15 -12 8 -50 18 -83 21 -54 6 -64 4 -99 -20 -21
-14 -42 -26 -47 -26 -4 0 -18 -12 -31 -27 -33 -39 -46 -23 -46 58 0 38 -4 69
-9 69 -5 0 -27 -7 -50 -15 -41 -14 -41 -14 -41 10 0 13 -6 26 -12 28 -7 3 -3
6 10 6 22 1 22 3 22 125 l0 123 35 -4 35 -3 0 114 c0 98 2 115 15 110 8 -4 15
-1 15 5 0 6 7 11 15 11 13 0 15 22 15 140 0 162 -7 180 -72 180 -21 0 -38 1
-38 3 0 16 34 97 41 97 21 0 32 49 30 132 -1 54 2 89 9 93 6 4 18 24 27 46 8
21 19 39 23 39 8 0 23 44 24 70 1 8 20 35 43 59 24 24 64 67 90 97 26 30 56
54 65 54 10 0 18 4 18 9 0 5 9 13 21 16 21 7 58 42 99 93 48 61 67 80 86 84
11 2 21 15 25 34 3 17 14 40 25 52 10 11 30 35 44 52 29 37 64 78 85 101 8 9
15 21 15 28 0 6 8 15 17 18 9 4 24 13 32 20 31 27 150 113 157 113 4 0 14 7
23 15 29 28 110 85 120 85 6 0 11 5 11 10 0 6 11 15 25 20 14 5 25 13 25 18 0
5 11 14 25 20 30 14 33 42 5 42 -11 0 -20 -4 -20 -9 0 -5 -37 -14 -82 -21 -46
-7 -87 -16 -93 -20 -5 -4 -59 -16 -120 -26 -60 -9 -112 -20 -115 -24 -3 -4
-18 -10 -35 -13 l-30 -5 30 25 c17 13 50 42 75 63 25 21 63 54 85 72 22 18 46
39 53 46 7 6 18 12 23 12 5 0 9 4 9 10 0 5 -37 10 -82 12 l-82 3 130 131 c160
164 176 174 272 174 41 0 72 4 72 10 0 6 47 10 120 10 l120 0 0 150 c0 148 0
150 -22 151 l-23 2 23 4 c15 3 22 12 22 26 0 12 20 44 44 70 24 26 49 61 56
77 l12 30 164 0 c139 0 164 2 164 15 0 8 -4 15 -9 15 -5 0 -14 14 -21 30 -7
17 -16 30 -20 30 -4 0 -15 18 -25 40 -10 22 -21 40 -26 40 -10 0 -29 58 -29
92 0 15 -6 37 -12 48 -10 15 -10 22 0 32 6 6 12 22 12 35 0 18 6 23 24 23 19
0 26 -7 31 -30 7 -34 6 -33 60 -19 22 6 96 14 165 18 l125 6 6 160 c6 177 20
243 53 250 12 3 42 9 69 15 26 6 55 17 65 25 36 32 153 115 162 115 5 0 13 6
17 14 15 25 52 36 122 36 l70 0 7 35 c3 19 4 42 0 50 -3 10 12 28 47 55 29 22
57 44 62 48 6 5 14 9 20 9 5 1 11 7 14 14 5 15 -117 3 -137 -14 -11 -8 -12 -5
-7 16 9 33 -6 53 -45 61 -29 5 -30 7 -30 60 l0 55 118 3 c113 3 117 4 120 26
2 12 8 22 13 22 5 0 9 9 9 20 0 14 11 26 33 35 l32 13 3 -280 2 -281 121 6z
m459 462 c7 -8 25 -15 41 -15 29 0 40 -22 19 -35 -5 -3 -10 -28 -10 -55 l0
-48 -40 -4 c-49 -4 -68 10 -41 32 10 8 22 25 25 37 6 20 4 21 -36 16 -24 -3
-45 -9 -48 -13 -11 -15 -59 -17 -65 -2 -4 11 -23 13 -89 11 l-84 -4 26 27 c20
20 37 28 64 28 20 0 40 5 43 10 3 6 17 10 31 10 13 0 24 5 24 10 0 17 126 12
140 -5z m-1620 -453 c0 -6 7 -17 15 -25 8 -8 17 -32 21 -54 l6 -38 -44 3 c-26
1 -50 -3 -61 -12 -18 -14 -18 -15 0 -41 16 -22 23 -25 59 -20 62 9 94 -2 94
-31 0 -23 -3 -24 -59 -24 -33 0 -63 -5 -66 -10 -4 -6 -11 -8 -16 -5 -5 4 -9 1
-9 -4 0 -6 -18 -14 -39 -17 -22 -4 -42 -13 -45 -20 -6 -16 -66 -19 -66 -4 0
23 -39 7 -66 -26 -16 -20 -39 -48 -51 -63 l-22 -26 -1 43 c0 23 4 42 9 42 4 0
11 18 14 41 3 22 14 48 25 57 12 11 23 37 27 65 8 54 35 87 35 43 0 -16 -4
-25 -10 -21 -16 10 -12 -45 4 -61 8 -8 24 -14 35 -14 16 0 22 11 32 55 7 30
15 55 19 55 4 0 10 18 14 41 5 29 12 43 26 46 11 3 20 12 20 21 0 8 3 12 6 9
7 -7 44 30 44 44 0 4 11 -2 25 -15 14 -13 25 -28 25 -34z m-800 -1339 c0 -83
-8 -111 -24 -84 -3 4 -27 14 -53 22 -73 20 -81 34 -67 119 l6 35 69 0 69 0 0
-92z m4515 15 c-4 -18 -11 -37 -16 -42 -17 -18 -10 -46 11 -46 15 0 20 -7 20
-25 0 -20 -5 -25 -25 -25 -14 0 -25 -4 -25 -8 0 -9 -129 -36 -137 -29 -6 6 19
57 27 57 4 0 11 16 14 35 5 23 16 39 34 49 15 8 42 23 60 32 17 10 32 21 32
26 0 4 3 8 6 8 3 0 3 -15 -1 -32z m-5280 -848 c-3 -5 -17 -10 -29 -10 -16 0
-26 -7 -30 -22 -9 -35 -8 -38 19 -38 21 0 25 -5 25 -27 0 -20 -3 -24 -9 -15
-7 11 -41 13 -159 10 -151 -3 -167 2 -80 23 27 6 48 15 48 19 0 4 24 14 53 20
28 7 57 16 62 20 6 5 30 12 55 18 25 5 46 10 48 11 2 1 0 -3 -3 -9z m6016
-712 c41 -12 48 -27 26 -50 -8 -7 -20 -31 -27 -53 -13 -41 -50 -116 -50 -102
0 4 -8 3 -17 -2 -17 -8 -18 -3 -15 65 2 42 -1 74 -6 74 -8 0 -7 35 3 68 5 15
36 15 86 0z m-6776 -1218 c3 -5 19 -10 36 -10 25 0 29 -4 29 -28 0 -37 19
-141 31 -167 8 -18 28 -100 29 -117 0 -4 -12 -3 -27 3 -17 6 -58 8 -103 4
l-75 -7 -18 81 c-10 45 -22 81 -27 81 -4 0 -13 23 -20 50 -7 28 -16 53 -21 56
-22 13 -8 44 24 53 44 13 134 13 142 1z m588 -380 c9 -11 25 -20 34 -20 13 0
18 -8 18 -25 0 -17 -5 -25 -17 -25 -10 0 -18 -6 -18 -14 0 -14 -16 -18 -130
-32 -30 -3 -61 -11 -67 -16 -10 -8 -13 -6 -13 6 0 9 5 16 11 16 13 0 62 48 77
76 9 18 64 53 82 54 3 0 13 -9 23 -20z"/>
<path d="M553 11466 c-6 -7 -39 -16 -72 -20 -56 -6 -61 -9 -61 -31 0 -14 2
-25 3 -25 2 0 47 6 100 14 83 13 108 13 189 1 119 -19 138 -19 138 0 0 22 -29
33 -126 46 -49 6 -93 16 -98 20 -15 13 -59 10 -73 -5z"/>
<path d="M270 8071 c0 -5 -16 -16 -35 -25 -19 -9 -35 -23 -35 -31 0 -7 -8 -16
-18 -20 -28 -8 -42 -48 -42 -114 0 -91 9 -121 35 -121 20 0 23 6 29 61 3 34
10 67 15 73 4 6 14 28 20 49 7 20 16 37 21 37 4 0 13 14 20 30 7 17 16 30 21
30 5 0 9 9 9 20 0 13 -7 20 -20 20 -11 0 -20 -4 -20 -9z"/>
</g>
</svg>
