<?xml version="1.0" standalone="no"?>
<!DOCTYPE svg PUBLIC "-//W3C//DTD SVG 20010904//EN"
 "http://www.w3.org/TR/2001/REC-SVG-20010904/DTD/svg10.dtd">
<svg version="1.0" xmlns="http://www.w3.org/2000/svg"
 width="2100.000000pt" height="1500.000000pt" viewBox="0 0 2100.000000 1500.000000"
 preserveAspectRatio="xMidYMid meet">
<metadata>
Created by potrace 1.15, written by Peter Selinger 2001-2017
</metadata>
<g transform="translate(0.000000,1500.000000) scale(0.100000,-0.100000)"
fill="#000000" stroke="none">
<path d="M10490 14937 c-19 -12 -41 -27 -48 -34 -7 -7 -24 -16 -38 -19 -13 -3
-24 -10 -24 -14 0 -4 -13 -13 -30 -20 -16 -7 -30 -16 -30 -20 0 -4 -15 -13
-32 -21 -18 -7 -35 -16 -38 -19 -3 -4 -32 -22 -65 -40 -33 -19 -66 -40 -73
-46 -6 -7 -22 -16 -34 -20 -12 -3 -26 -10 -32 -15 -23 -19 -101 -69 -109 -69
-4 0 -13 -5 -20 -10 -25 -21 -86 -58 -106 -65 -12 -3 -21 -10 -21 -14 0 -5
-15 -15 -32 -22 -18 -7 -37 -17 -43 -21 -30 -24 -102 -68 -112 -68 -6 0 -13
-4 -15 -8 -1 -5 -32 -26 -68 -46 -36 -21 -96 -57 -135 -82 -38 -24 -83 -51
-100 -60 -16 -8 -61 -35 -100 -59 -38 -24 -99 -61 -135 -82 -36 -20 -67 -40
-70 -43 -3 -4 -17 -13 -32 -21 -63 -33 -164 -94 -176 -106 -7 -7 -24 -16 -38
-19 -13 -3 -24 -10 -24 -14 0 -4 -13 -13 -30 -20 -16 -7 -30 -16 -30 -20 0 -5
-16 -14 -35 -20 -19 -6 -35 -15 -35 -20 0 -5 -16 -14 -35 -21 -19 -7 -35 -16
-35 -20 0 -4 -13 -12 -30 -19 -16 -7 -30 -16 -30 -21 0 -4 -16 -13 -35 -20
-19 -7 -35 -16 -35 -20 0 -4 -13 -12 -30 -19 -16 -7 -30 -16 -30 -20 0 -5 -16
-14 -35 -20 -19 -6 -35 -15 -35 -20 0 -5 -16 -14 -35 -21 -19 -7 -35 -16 -35
-20 0 -4 -13 -12 -30 -19 -16 -7 -30 -16 -30 -21 0 -4 -16 -13 -35 -20 -19 -7
-35 -16 -35 -20 0 -4 -13 -12 -30 -19 -16 -7 -30 -16 -30 -21 0 -4 -16 -13
-35 -20 -19 -7 -35 -16 -35 -20 0 -4 -16 -13 -35 -20 -19 -7 -35 -16 -35 -20
0 -4 -13 -12 -30 -19 -16 -7 -30 -16 -30 -21 0 -4 -16 -13 -35 -20 -19 -7 -35
-16 -35 -20 0 -4 -13 -12 -30 -19 -16 -7 -30 -16 -30 -20 0 -5 -16 -14 -35
-20 -19 -6 -35 -15 -35 -20 0 -5 -16 -14 -35 -21 -19 -7 -35 -17 -35 -22 0 -4
-13 -13 -30 -18 -16 -6 -30 -14 -30 -19 0 -4 -15 -14 -32 -21 -18 -7 -37 -17
-43 -21 -26 -21 -85 -57 -104 -63 -12 -3 -21 -10 -21 -15 0 -5 -16 -14 -35
-21 -19 -7 -35 -16 -35 -20 0 -4 -13 -12 -30 -19 -16 -7 -30 -16 -30 -20 0 -4
-15 -14 -32 -21 -18 -7 -37 -17 -43 -21 -25 -21 -87 -58 -95 -58 -5 0 -15 -6
-22 -13 -7 -7 -40 -28 -73 -47 -33 -19 -66 -40 -73 -47 -7 -7 -24 -16 -38 -19
-13 -3 -24 -10 -24 -14 0 -4 -13 -13 -30 -20 -16 -7 -30 -16 -30 -20 0 -4 -15
-13 -32 -21 -18 -7 -35 -16 -38 -19 -3 -4 -32 -22 -65 -40 -33 -19 -66 -40
-73 -47 -7 -7 -24 -16 -38 -19 -13 -3 -24 -10 -24 -14 0 -4 -13 -13 -30 -20
-16 -7 -30 -16 -30 -20 0 -4 -15 -13 -32 -21 -18 -7 -35 -16 -38 -19 -3 -4
-32 -22 -65 -40 -33 -19 -66 -40 -73 -46 -6 -7 -22 -16 -34 -20 -12 -3 -26
-10 -32 -15 -29 -24 -102 -69 -113 -69 -7 0 -13 -4 -13 -8 0 -5 -15 -16 -32
-25 -18 -10 -50 -27 -70 -40 -20 -12 -67 -40 -105 -61 -37 -22 -70 -43 -73
-46 -3 -4 -17 -13 -32 -21 -63 -33 -164 -94 -176 -106 -7 -7 -24 -16 -38 -19
-13 -3 -24 -10 -24 -14 0 -4 -14 -13 -30 -20 -16 -7 -30 -16 -30 -20 0 -5 -16
-14 -35 -20 -19 -6 -35 -15 -35 -20 0 -5 -16 -14 -35 -21 -19 -7 -35 -16 -35
-20 0 -4 -13 -12 -30 -19 -16 -7 -30 -16 -30 -21 0 -4 -16 -13 -35 -20 -19 -7
-35 -16 -35 -20 0 -4 -16 -13 -34 -20 -19 -7 -33 -16 -30 -20 2 -4 -12 -13
-31 -19 -19 -6 -35 -15 -35 -20 0 -5 -16 -14 -35 -21 -19 -7 -35 -16 -35 -20
0 -4 -13 -12 -30 -19 -16 -7 -30 -16 -30 -21 0 -4 -16 -13 -35 -20 -19 -7 -35
-16 -35 -20 0 -4 -13 -12 -30 -19 -16 -7 -30 -16 -30 -20 0 -5 -16 -14 -35
-20 -19 -6 -35 -15 -35 -20 0 -5 -16 -14 -35 -21 -19 -7 -35 -16 -35 -20 0 -4
-13 -12 -30 -19 -16 -7 -30 -16 -30 -21 0 -4 -16 -13 -35 -20 -19 -7 -35 -16
-35 -20 0 -4 -13 -12 -30 -19 -17 -7 -30 -16 -30 -20 0 -5 -15 -14 -34 -20
-19 -6 -36 -15 -38 -19 -2 -4 -30 -22 -63 -41 -33 -19 -66 -40 -73 -47 -7 -7
-24 -16 -38 -19 -13 -3 -24 -10 -24 -14 0 -5 -8 -11 -19 -15 -10 -3 -29 -14
-41 -25 -19 -17 -38 -20 -107 -20 l-83 0 0 -44 c0 -47 -15 -70 -52 -82 -12 -3
-26 -10 -32 -15 -23 -19 -101 -69 -109 -69 -4 0 -13 -5 -20 -10 -25 -21 -86
-58 -106 -65 -12 -3 -21 -10 -21 -14 0 -5 -15 -15 -32 -22 -18 -7 -37 -17 -43
-21 -30 -24 -102 -68 -112 -68 -6 0 -13 -4 -15 -8 -3 -8 -63 -45 -163 -100
-16 -9 -32 -20 -35 -23 -3 -3 -18 -14 -35 -23 -16 -10 -46 -27 -66 -39 -20
-12 -63 -37 -95 -56 -33 -19 -61 -38 -64 -41 -4 -6 -81 -51 -165 -98 -16 -9
-32 -20 -35 -23 -3 -3 -32 -21 -65 -39 -33 -19 -66 -40 -73 -47 -7 -7 -24 -16
-38 -19 -13 -3 -24 -9 -24 -14 0 -4 -18 -15 -40 -25 -22 -10 -40 -22 -40 -26
0 -4 -16 -13 -35 -19 -19 -6 -35 -15 -35 -18 0 -4 -29 -23 -65 -42 -36 -19
-65 -38 -65 -42 0 -3 -16 -12 -35 -18 -19 -6 -35 -15 -35 -20 0 -4 -13 -13
-30 -20 -16 -7 -30 -16 -30 -20 0 -5 -16 -14 -35 -20 -19 -6 -35 -15 -35 -20
0 -5 -16 -14 -34 -21 -19 -7 -33 -15 -31 -19 2 -4 -12 -12 -31 -19 -18 -7 -34
-16 -34 -21 0 -5 -16 -14 -35 -21 -19 -7 -35 -16 -35 -20 0 -4 -14 -12 -30
-19 -17 -7 -30 -16 -30 -20 0 -5 -16 -14 -35 -20 -19 -6 -35 -15 -35 -20 0 -5
-16 -14 -35 -21 -19 -7 -35 -16 -35 -20 0 -4 -14 -12 -30 -19 -17 -7 -30 -16
-30 -21 0 -4 -16 -13 -35 -20 -19 -7 -35 -16 -35 -20 0 -4 -14 -12 -30 -19
-17 -7 -30 -16 -30 -20 0 -5 -16 -14 -35 -20 -19 -6 -35 -15 -35 -20 0 -5 -16
-14 -35 -21 -19 -7 -35 -16 -35 -20 0 -4 -13 -12 -30 -19 -16 -7 -30 -16 -30
-20 0 -4 -15 -14 -32 -21 -18 -7 -37 -17 -43 -21 -26 -21 -85 -57 -104 -63
-12 -3 -21 -10 -21 -15 0 -5 -16 -14 -35 -21 -19 -7 -35 -16 -35 -20 0 -4 -13
-12 -30 -19 -16 -7 -30 -16 -30 -20 0 -4 -15 -14 -33 -21 -17 -7 -36 -17 -42
-21 -22 -18 -81 -54 -97 -61 -10 -3 -18 -13 -18 -21 0 -19 21 -66 30 -66 3 0
12 -16 20 -35 8 -19 17 -35 20 -35 3 0 12 -16 20 -35 8 -19 17 -35 21 -35 3 0
12 -13 19 -30 7 -16 16 -30 19 -30 4 0 13 -16 21 -35 8 -19 17 -35 20 -35 3 0
12 -16 20 -35 8 -19 17 -35 21 -35 3 0 12 -14 19 -30 7 -16 16 -30 21 -30 5 0
8 -3 7 -7 -4 -13 26 -53 39 -53 7 0 13 4 13 9 0 5 16 15 35 21 19 6 35 15 35
20 0 5 16 14 34 21 19 7 33 15 31 19 -2 4 12 12 31 19 18 7 34 16 34 21 0 5
16 14 35 21 19 7 35 16 35 20 0 4 14 12 30 19 17 7 30 16 30 21 0 4 16 13 35
20 19 7 35 16 35 20 0 4 14 12 30 19 17 7 30 15 30 19 0 4 16 13 35 20 19 7
35 16 35 21 0 5 16 14 35 21 19 7 35 16 35 20 0 4 13 12 30 19 16 7 30 16 30
21 0 4 16 13 35 20 19 7 35 16 35 20 0 4 16 13 35 20 19 7 35 16 35 20 0 4 14
12 30 19 17 7 30 16 30 21 0 4 16 13 35 20 19 7 35 16 35 20 0 4 14 12 30 19
17 7 30 16 30 21 0 4 16 13 35 20 19 7 35 16 35 20 0 4 16 13 35 20 19 7 35
17 35 22 0 4 14 13 30 18 17 6 30 14 30 19 0 4 15 14 33 21 17 7 37 17 42 21
24 20 101 68 108 68 4 0 13 5 20 10 25 21 86 58 106 65 12 3 21 10 21 15 0 5
16 14 35 21 19 7 35 16 35 20 0 4 13 12 30 19 16 7 30 16 30 20 0 4 15 13 33
21 17 7 34 16 37 19 3 4 32 21 65 40 33 19 62 37 65 40 3 3 32 22 65 40 33 19
66 40 73 46 6 7 22 16 35 20 12 4 24 10 27 14 3 3 32 21 65 40 33 19 62 37 65
40 3 3 32 22 65 40 33 19 66 40 73 46 6 7 22 16 34 20 12 3 26 10 32 15 24 20
87 59 96 59 5 0 15 6 22 13 11 12 72 49 173 105 16 9 35 22 41 28 7 6 26 17
43 24 17 7 31 16 31 20 0 4 11 11 24 14 14 3 31 12 38 19 7 7 40 28 73 47 33
19 66 40 73 47 7 7 19 13 26 13 7 0 23 9 36 20 13 11 27 20 31 20 4 0 14 6 21
13 34 32 70 37 283 37 l215 0 0 -4705 0 -4705 -740 0 -740 0 0 -390 0 -390
7515 0 7515 0 0 390 0 390 -667 0 -668 0 0 4705 0 4705 251 0 c237 0 314 -7
314 -30 0 -5 16 -14 35 -20 19 -6 35 -15 35 -20 0 -5 16 -14 35 -21 19 -7 35
-16 35 -20 0 -4 15 -12 33 -20 17 -7 34 -16 37 -19 3 -4 68 -42 145 -85 77
-43 142 -81 145 -85 3 -3 20 -12 38 -19 17 -8 32 -16 32 -20 0 -4 12 -12 28
-19 15 -6 45 -23 67 -36 22 -14 57 -32 78 -41 20 -10 37 -21 37 -25 0 -4 12
-13 28 -19 15 -7 44 -22 64 -34 20 -12 99 -58 175 -101 76 -44 140 -82 143
-86 3 -3 20 -12 38 -19 17 -8 32 -16 32 -20 0 -4 16 -13 35 -20 19 -7 35 -16
35 -21 0 -4 10 -10 23 -14 13 -3 34 -15 47 -26 13 -11 28 -20 35 -20 7 0 22
-9 35 -20 13 -11 29 -20 36 -20 7 0 19 -6 26 -13 7 -7 56 -37 108 -67 52 -29
97 -57 100 -60 3 -3 20 -12 38 -19 17 -8 32 -16 32 -20 0 -4 16 -13 35 -20 19
-7 35 -16 35 -20 0 -4 16 -13 35 -20 19 -7 35 -16 35 -20 0 -4 16 -13 35 -20
19 -7 35 -16 35 -20 0 -4 16 -13 35 -20 19 -7 35 -16 35 -21 0 -5 16 -14 35
-20 19 -6 35 -15 35 -20 0 -5 16 -14 35 -20 19 -6 35 -15 35 -20 0 -4 15 -13
33 -21 17 -7 34 -16 37 -19 3 -4 32 -21 65 -40 33 -19 62 -36 65 -40 3 -3 20
-12 38 -19 17 -8 32 -16 32 -20 0 -4 16 -13 35 -20 19 -7 35 -16 35 -20 0 -4
16 -13 35 -20 19 -7 35 -16 35 -21 0 -4 11 -11 24 -14 14 -3 31 -13 39 -21 8
-7 26 -17 40 -21 23 -5 29 -1 44 32 10 22 23 42 29 46 7 4 15 19 18 33 3 13
19 44 35 67 16 24 44 70 62 103 18 33 39 66 46 73 7 7 13 19 13 26 0 8 7 19
15 26 8 7 12 16 9 21 -3 5 -1 9 4 9 6 0 13 11 16 25 4 14 11 25 16 25 6 0 10
15 10 34 0 28 -4 35 -25 40 -14 4 -25 10 -25 15 0 5 -16 15 -35 21 -19 6 -35
15 -35 20 0 5 -16 14 -35 20 -19 6 -35 15 -35 20 0 5 -16 14 -35 21 -19 7 -35
16 -35 20 0 4 -13 12 -30 19 -16 7 -30 15 -30 19 0 4 -16 13 -35 20 -19 7 -35
16 -35 20 0 4 -16 13 -35 20 -19 7 -35 16 -35 20 0 4 -16 13 -35 20 -19 7 -35
16 -35 20 0 4 -16 13 -35 20 -19 7 -35 16 -35 20 0 4 -16 13 -35 20 -19 7 -35
16 -35 20 0 4 -16 13 -35 20 -19 7 -35 16 -35 21 0 5 -16 14 -35 20 -19 6 -35
15 -35 20 0 5 -16 14 -35 20 -19 6 -35 15 -35 20 0 5 -16 14 -35 21 -19 7 -35
16 -35 20 0 4 -15 12 -32 20 -18 7 -35 16 -38 19 -3 4 -32 21 -65 40 -33 19
-62 36 -65 39 -3 3 -40 24 -82 46 -43 22 -78 43 -78 46 0 4 -11 10 -24 13 -14
3 -31 12 -38 19 -18 16 -64 42 -110 63 -21 9 -38 19 -38 23 0 4 -16 13 -35 20
-19 7 -35 16 -35 21 0 4 -12 13 -27 19 -16 7 -45 22 -65 34 -20 12 -99 58
-175 101 -76 44 -140 82 -143 86 -3 3 -20 12 -37 19 -18 8 -33 16 -33 20 0 4
-16 13 -35 20 -19 7 -35 16 -35 20 0 4 -16 13 -35 20 -19 7 -35 16 -35 21 0 5
-16 14 -35 20 -19 6 -35 15 -35 20 0 5 -16 14 -35 20 -19 6 -35 15 -35 20 0 4
-12 13 -27 19 -16 7 -45 22 -65 34 -20 12 -83 49 -140 81 -57 33 -105 62 -108
66 -3 3 -20 12 -37 19 -18 8 -33 16 -33 20 0 4 -16 13 -35 20 -31 11 -35 16
-35 47 l0 34 -58 0 c-45 0 -65 5 -82 20 -13 11 -28 20 -35 20 -7 0 -22 9 -35
20 -13 11 -29 20 -36 20 -7 0 -19 6 -26 13 -7 7 -40 28 -73 47 -33 18 -62 36
-65 40 -3 3 -20 12 -37 19 -18 8 -33 16 -33 20 0 4 -16 13 -35 20 -19 7 -35
16 -35 20 0 4 -16 13 -35 20 -19 7 -35 16 -35 20 0 4 -16 13 -35 20 -19 7 -35
16 -35 20 0 4 -16 13 -35 20 -19 7 -35 16 -35 21 0 5 -16 14 -35 20 -19 6 -35
15 -35 20 0 5 -16 14 -35 20 -19 6 -35 15 -35 20 0 5 -16 14 -35 20 -19 6 -35
15 -35 20 0 5 -16 14 -35 21 -19 7 -35 16 -35 20 0 4 -13 12 -30 19 -16 7 -30
15 -30 19 0 4 -16 13 -35 20 -19 7 -35 16 -35 20 0 4 -16 13 -35 20 -19 7 -35
16 -35 20 0 4 -16 13 -35 20 -19 7 -35 16 -35 20 0 4 -16 13 -35 20 -19 7 -35
16 -35 20 0 4 -16 13 -35 20 -19 7 -35 16 -35 21 0 5 -16 14 -35 20 -19 6 -35
15 -35 20 0 5 -16 14 -35 20 -19 6 -35 15 -35 20 0 5 -16 14 -35 20 -19 6 -35
15 -35 20 0 4 -15 13 -32 21 -18 7 -35 16 -38 19 -3 4 -84 51 -180 105 -96 54
-177 101 -180 104 -8 9 -61 38 -102 57 -21 9 -38 19 -38 23 0 4 -16 13 -35 20
-19 7 -35 16 -35 20 0 4 -16 13 -35 20 -19 7 -35 16 -35 21 0 4 -12 13 -27 19
-16 7 -45 22 -65 34 -20 12 -83 49 -140 81 -57 33 -105 62 -108 66 -3 3 -20
12 -37 19 -18 8 -33 16 -33 20 0 4 -16 13 -35 20 -19 7 -35 16 -35 20 0 4 -16
13 -35 20 -19 7 -35 16 -35 20 0 4 -16 13 -35 20 -19 7 -35 16 -35 20 0 4 -16
13 -35 20 -19 7 -35 16 -35 21 0 5 -16 14 -35 20 -19 6 -35 15 -35 20 0 4 -12
13 -27 19 -16 7 -44 22 -65 34 -20 12 -67 40 -105 61 -37 22 -70 42 -73 46 -3
3 -20 12 -37 19 -18 8 -33 16 -33 20 0 4 -16 13 -35 20 -19 7 -35 16 -35 20 0
4 -16 13 -35 20 -19 7 -35 16 -35 20 0 4 -16 13 -35 20 -19 7 -35 16 -35 21 0
4 -10 10 -23 14 -13 3 -34 15 -47 26 -13 11 -28 20 -35 20 -7 0 -22 9 -35 20
-13 11 -29 20 -36 20 -7 0 -19 6 -26 13 -7 8 -25 20 -40 28 -57 30 -163 93
-168 99 -3 3 -20 12 -37 19 -18 8 -33 16 -33 20 0 4 -16 13 -35 20 -19 7 -35
16 -35 20 0 4 -16 13 -35 20 -19 7 -35 16 -35 20 0 4 -16 13 -35 20 -19 7 -35
16 -35 21 0 5 -16 14 -35 20 -19 6 -35 15 -35 20 0 5 -16 14 -35 20 -19 6 -35
15 -35 20 0 5 -16 14 -35 20 -19 6 -35 15 -35 20 0 5 -16 14 -34 21 -19 7 -33
15 -31 19 2 4 -12 12 -31 19 -18 7 -34 16 -34 20 0 4 -16 13 -35 20 -19 7 -35
16 -35 20 0 4 -16 13 -35 20 -19 7 -35 16 -35 20 0 4 -16 13 -35 20 -19 7 -35
16 -35 20 0 4 -16 13 -35 20 -19 7 -35 16 -35 20 0 4 -16 13 -35 20 -19 7 -35
16 -35 21 0 5 -16 14 -35 20 -19 6 -35 15 -35 20 0 5 -16 14 -35 20 -19 6 -35
15 -35 20 0 5 -16 14 -35 20 -19 6 -35 15 -35 20 0 5 -16 14 -35 21 -19 7 -35
16 -35 20 0 4 -15 12 -32 20 -18 7 -35 15 -38 19 -3 3 -84 50 -180 105 -96 54
-177 102 -180 105 -3 3 -20 12 -37 19 -18 8 -33 17 -33 21 0 4 -11 11 -24 14
-14 3 -31 12 -38 19 -7 7 -24 18 -38 25 -14 7 -43 24 -65 37 -22 13 -54 32
-72 42 -98 55 -239 137 -243 143 -3 3 -20 12 -37 19 -18 8 -33 16 -33 20 0 4
-16 13 -35 20 -19 7 -35 16 -35 20 0 4 -16 13 -35 20 -19 7 -35 16 -35 20 0 4
-16 13 -35 20 -19 7 -35 16 -35 20 0 4 -16 13 -35 20 -19 7 -35 16 -35 21 0 4
-12 13 -27 19 -16 7 -46 23 -68 36 -22 14 -56 33 -75 42 -19 10 -37 20 -40 23
-3 3 -22 16 -43 28 -49 29 -119 28 -167 -1z m112 -700 c7 -7 28 -19 46 -26 17
-7 32 -17 32 -21 0 -5 16 -14 35 -20 19 -6 35 -15 35 -19 0 -4 17 -15 38 -25
20 -9 55 -27 77 -41 22 -13 54 -32 72 -42 102 -56 309 -177 313 -183 3 -3 20
-12 38 -19 17 -8 32 -16 32 -20 0 -4 16 -13 35 -20 19 -7 35 -16 35 -20 0 -4
16 -13 35 -20 19 -7 35 -16 35 -20 0 -4 16 -13 35 -20 19 -7 35 -16 35 -21 0
-4 12 -13 28 -19 15 -7 45 -23 67 -36 22 -13 54 -32 72 -42 98 -55 239 -137
243 -143 3 -3 20 -12 38 -19 17 -8 32 -16 32 -20 0 -4 16 -13 35 -20 19 -7 35
-16 35 -20 0 -4 16 -13 35 -20 19 -7 35 -16 35 -21 0 -4 10 -10 23 -14 13 -3
34 -15 47 -26 13 -11 28 -20 35 -20 7 0 22 -9 35 -20 13 -11 29 -20 36 -20 7
0 19 -6 26 -13 7 -8 25 -20 40 -28 57 -30 163 -93 168 -99 3 -3 20 -12 38 -19
17 -8 32 -16 32 -20 0 -4 16 -13 35 -20 19 -7 35 -16 35 -20 0 -4 16 -13 35
-20 19 -7 35 -16 35 -20 0 -4 16 -13 35 -20 19 -7 35 -16 35 -20 0 -4 16 -13
35 -20 19 -7 35 -16 35 -21 0 -5 16 -14 35 -20 19 -6 35 -15 35 -20 0 -5 16
-14 35 -20 19 -6 35 -15 35 -20 0 -5 16 -14 35 -20 19 -6 35 -15 35 -20 0 -4
14 -13 30 -20 17 -7 30 -15 30 -19 0 -4 16 -13 35 -20 19 -7 35 -16 35 -20 0
-4 16 -13 35 -20 19 -7 35 -16 35 -20 0 -4 16 -13 35 -20 19 -7 35 -16 35 -20
0 -4 16 -13 35 -20 19 -7 35 -16 35 -20 0 -4 16 -13 35 -20 19 -7 35 -16 35
-21 0 -5 16 -14 35 -20 19 -6 35 -15 35 -20 0 -5 16 -14 35 -20 19 -6 35 -15
35 -20 0 -5 16 -14 35 -20 19 -6 35 -15 35 -20 0 -5 16 -14 35 -20 19 -6 35
-15 35 -20 0 -4 14 -13 30 -19 17 -5 30 -14 30 -18 0 -5 16 -15 35 -22 19 -7
35 -16 35 -20 0 -4 16 -13 35 -20 19 -7 35 -16 35 -20 0 -4 16 -13 35 -20 19
-7 35 -16 35 -21 0 -4 11 -11 24 -14 14 -3 31 -12 38 -19 7 -6 31 -21 52 -32
89 -45 111 -58 116 -64 3 -4 20 -13 38 -20 17 -8 32 -16 32 -20 0 -4 12 -12
28 -19 15 -7 45 -23 67 -37 22 -13 54 -32 72 -42 104 -58 379 -218 383 -223 3
-3 20 -12 38 -19 17 -8 32 -16 32 -20 0 -4 16 -13 35 -20 19 -7 35 -16 35 -20
0 -4 16 -13 35 -20 19 -7 35 -16 35 -21 0 -4 12 -13 28 -19 15 -7 45 -23 67
-36 22 -14 56 -33 75 -42 19 -10 37 -21 40 -24 3 -3 32 -20 65 -39 33 -19 62
-36 65 -40 3 -3 20 -12 38 -19 17 -8 32 -16 32 -20 0 -4 16 -13 35 -20 19 -7
35 -16 35 -20 0 -4 16 -13 35 -20 19 -7 35 -16 35 -20 0 -4 16 -13 35 -20 19
-7 35 -16 35 -21 0 -4 10 -10 23 -14 13 -3 34 -15 47 -26 13 -11 29 -20 36
-20 7 0 19 -6 26 -13 14 -14 51 -36 107 -62 19 -9 40 -23 48 -31 8 -8 25 -17
39 -20 13 -3 24 -10 24 -14 0 -4 14 -13 30 -20 17 -7 30 -16 30 -21 0 -4 10
-10 23 -12 12 -2 -2462 -4 -5498 -4 -3036 -1 -5512 1 -5502 4 9 2 17 8 17 13
0 4 14 13 30 20 17 7 30 16 30 21 0 4 16 13 35 20 19 7 35 16 35 20 0 4 14 12
30 19 17 7 30 15 30 19 0 4 16 13 35 20 19 7 35 16 35 21 0 5 16 14 35 21 19
7 35 16 35 20 0 4 14 12 30 19 17 7 30 16 30 20 0 4 15 13 33 21 17 7 34 16
37 19 3 4 32 22 65 40 33 19 66 40 73 46 6 7 22 16 34 20 12 3 26 10 32 15 23
19 101 69 109 69 4 0 13 5 20 10 25 21 86 58 106 65 12 3 21 10 21 14 0 5 15
15 33 22 17 7 37 17 42 21 31 25 102 68 113 68 6 0 12 4 12 8 0 5 15 16 33 25
17 10 49 27 69 40 76 46 205 124 299 180 35 21 96 58 134 83 39 24 81 49 95
56 14 7 27 15 30 18 3 4 37 24 75 45 39 21 72 41 75 45 3 3 32 22 65 40 33 19
61 37 63 41 2 4 19 13 38 19 19 6 34 15 34 20 0 4 14 13 30 20 17 7 30 15 30
19 0 4 16 13 35 20 19 7 35 16 35 21 0 5 16 14 35 21 19 7 35 16 35 20 0 4 14
12 30 19 17 7 30 16 30 20 0 5 16 14 35 20 19 6 35 15 35 20 0 5 16 14 34 21
19 7 33 15 31 19 -2 4 12 12 31 19 18 7 34 16 34 21 0 5 16 14 35 21 19 7 35
16 35 20 0 4 14 12 30 19 17 7 30 16 30 21 0 4 16 13 35 20 19 7 35 16 35 20
0 4 16 13 35 20 19 7 35 16 35 20 0 4 14 12 30 19 17 7 30 16 30 21 0 4 16 13
35 20 19 7 35 16 35 20 0 4 14 12 30 19 17 7 30 16 30 21 0 4 16 13 35 20 19
7 35 16 35 20 0 4 16 13 35 20 19 7 35 17 35 22 0 4 14 13 30 18 17 6 30 14
30 19 0 4 15 14 33 21 17 7 37 17 42 21 26 21 85 57 104 63 12 3 21 10 21 14
0 5 15 14 33 22 17 7 36 19 40 26 4 7 14 13 21 13 7 0 23 9 36 20 13 11 34 23
47 26 13 4 23 10 23 14 0 4 14 13 30 20 17 7 30 16 30 20 0 5 15 14 34 20 19
6 36 15 38 19 2 4 30 22 63 41 33 19 66 40 73 47 7 7 24 16 38 19 13 3 24 10
24 14 0 4 14 13 30 20 17 7 30 16 30 20 0 4 15 13 33 21 17 7 34 16 37 19 3 4
32 22 65 40 33 19 66 40 73 47 7 7 24 16 38 19 13 3 24 10 24 14 0 4 14 13 30
20 17 7 30 16 30 20 0 4 15 13 33 21 17 7 34 16 37 19 3 4 32 22 65 40 33 19
66 40 73 46 6 7 22 16 34 20 12 3 26 10 32 15 29 24 102 69 114 69 6 0 12 4
12 8 0 5 15 16 33 25 17 10 49 27 69 40 147 89 234 141 273 163 17 9 32 20 35
23 3 4 20 13 38 20 17 8 32 17 32 21 0 4 15 14 33 21 17 7 38 19 45 26 7 7 22
13 32 13 10 0 25 -6 32 -13z m5518 -8582 l0 -4705 -5450 0 -5450 0 0 4705 0
4705 5450 0 5450 0 0 -4705z"/>
</g>
</svg>
