<?xml version="1.0" standalone="no"?>
<!DOCTYPE svg PUBLIC "-//W3C//DTD SVG 20010904//EN"
 "http://www.w3.org/TR/2001/REC-SVG-20010904/DTD/svg10.dtd">
<svg version="1.0" xmlns="http://www.w3.org/2000/svg"
 width="2100.000000pt" height="1500.000000pt" viewBox="0 0 2100.000000 1500.000000"
 preserveAspectRatio="xMidYMid meet">
<metadata>
Created by potrace 1.15, written by Peter Selinger 2001-2017
</metadata>
<g transform="translate(0.000000,1500.000000) scale(0.100000,-0.100000)"
fill="#000000" stroke="none">
<path d="M10727 14943 l-28 -58 -2757 -1370 -2757 -1371 -3 478 -2 478 -690 0
-690 0 0 -822 0 -823 -1240 -615 -1240 -615 0 -452 c0 -296 3 -453 10 -453 7
0 10 -1503 10 -4490 l0 -4490 9260 0 9260 0 0 4945 0 4945 -22 0 c-13 1 -2009
1057 -4437 2349 -4221 2245 -4415 2349 -4433 2385 -16 32 -23 37 -41 31 -12
-4 -29 -6 -37 -6 -8 1 -42 4 -75 7 l-61 6 -27 -59z m3883 -2753 l3685 -1960
-7639 0 c-4202 0 -7637 2 -7635 4 12 13 7876 3916 7889 3916 8 0 1673 -882
3700 -1960z m-9730 227 l0 -422 -385 -193 c-212 -105 -387 -192 -390 -192 -3
0 -5 277 -5 615 l0 615 390 0 390 0 0 -423z m14150 -7142 l0 -4045 -1725 0
-1725 0 0 2570 0 2570 -1909 0 -1909 0 -6 -112 c-4 -62 -6 -135 -6 -163 1 -27
3 -1133 6 -2457 l4 -2408 -4825 0 -4825 0 0 4045 0 4045 8460 0 8460 0 0
-4045z m-3820 -1635 l0 -2410 -1540 0 -1540 0 0 2390 c0 1885 3 2394 12 2410
13 20 27 20 1540 20 l1528 0 0 -2410z"/>
<path d="M3520 5853 c0 -1116 3 -2099 7 -2185 l6 -158 2079 0 2078 0 0 2185 0
2185 -2085 0 -2085 0 0 -2027z m1980 792 l0 -1025 -885 0 -885 0 0 1025 0
1025 885 0 885 0 0 -1025z m1980 0 l0 -1025 -885 0 -885 0 0 1025 0 1025 885
0 885 0 0 -1025z m-1980 -2080 l0 -845 -885 0 -885 0 0 845 0 845 885 0 885 0
0 -845z m1980 0 l0 -845 -885 0 -885 0 0 845 0 845 885 0 885 0 0 -845z"/>
<path d="M12430 3405 l0 -95 350 0 350 0 0 95 0 95 -350 0 -350 0 0 -95z"/>
</g>
</svg>
