<?xml version="1.0" standalone="no"?>
<!DOCTYPE svg PUBLIC "-//W3C//DTD SVG 20010904//EN"
 "http://www.w3.org/TR/2001/REC-SVG-20010904/DTD/svg10.dtd">
<svg version="1.0" xmlns="http://www.w3.org/2000/svg"
 width="2100.000000pt" height="1500.000000pt" viewBox="0 0 2100.000000 1500.000000"
 preserveAspectRatio="xMidYMid meet">
<metadata>
Created by potrace 1.15, written by Peter Selinger 2001-2017
</metadata>
<g transform="translate(0.000000,1500.000000) scale(0.100000,-0.100000)"
fill="#000000" stroke="none">
<path d="M17494 14914 c-16 -14 -120 -115 -230 -223 -111 -108 -298 -289 -415
-403 -118 -114 -285 -276 -371 -360 -86 -84 -210 -203 -275 -265 -65 -61 -188
-180 -274 -265 -86 -84 -257 -250 -379 -368 -122 -118 -277 -268 -343 -333
-67 -65 -181 -175 -255 -245 -73 -70 -211 -203 -307 -297 -260 -254 -593 -577
-655 -635 -30 -28 -127 -122 -216 -208 -88 -86 -265 -258 -393 -382 -128 -124
-304 -295 -391 -380 -87 -85 -194 -187 -237 -227 -43 -39 -157 -150 -254 -245
-97 -95 -273 -267 -393 -383 -119 -115 -292 -283 -384 -373 -92 -90 -200 -193
-240 -230 -39 -37 -159 -152 -266 -257 -220 -216 -528 -515 -691 -671 -60 -58
-175 -168 -255 -246 -80 -77 -232 -224 -337 -327 -106 -102 -274 -265 -372
-361 -99 -96 -203 -197 -233 -224 -29 -27 -144 -137 -254 -245 -111 -108 -298
-289 -415 -403 -118 -114 -287 -279 -376 -365 -90 -87 -195 -189 -235 -226
-40 -38 -164 -157 -274 -265 -111 -109 -300 -291 -419 -407 -120 -115 -280
-271 -356 -345 -76 -74 -199 -193 -274 -265 -75 -71 -206 -197 -290 -280 -236
-231 -576 -560 -615 -595 -33 -30 -215 -207 -579 -563 l-151 -147 102 -104
c57 -57 129 -132 160 -165 31 -34 60 -61 63 -61 8 0 48 38 270 255 225 220
509 496 610 591 39 36 151 145 251 242 212 207 569 554 702 681 l92 90 0
-1765 0 -1764 -230 0 -230 0 0 -325 0 -325 2470 0 2470 0 0 2365 0 2365 2145
0 2145 0 0 2515 0 2515 2140 0 2140 0 0 320 0 320 -1950 0 -1950 0 0 1321 0
1321 69 66 c38 37 123 117 188 179 65 62 174 167 243 234 69 67 220 213 335
326 116 112 279 270 363 352 83 82 152 146 152 143 0 -4 5 1 11 12 9 15 4 25
-29 60 -23 22 -93 94 -156 159 -63 64 -121 117 -129 117 -8 0 -27 -12 -43 -26z
m-1404 -3139 l0 -1125 -320 0 -320 0 0 -2520 0 -2520 -1585 0 -1585 0 0 1797
0 1797 189 185 c217 213 541 528 651 631 41 39 154 149 251 243 97 95 264 257
370 360 107 103 267 258 355 345 89 86 207 200 263 252 55 52 179 172 275 265
197 192 495 482 698 679 76 73 140 131 143 128 3 -3 5 -1 5 4 0 13 13 26 138
144 56 52 184 177 284 277 101 100 184 182 186 182 1 1 2 -505 2 -1124z
m-4190 -4550 l0 -1615 -375 0 -375 0 0 -2355 0 -2355 -1705 0 -1705 0 0 1958
1 1957 100 95 c55 52 171 165 259 250 87 85 219 214 294 285 75 72 196 189
269 260 74 72 234 227 356 345 122 118 285 276 361 350 76 74 200 193 275 265
75 71 205 197 289 280 84 82 251 245 371 360 119 116 273 264 340 330 68 66
185 179 260 250 74 72 205 198 289 280 84 83 251 245 370 360 120 116 241 233
269 262 29 28 53 52 55 52 1 1 2 -726 2 -1614z"/>
<path d="M4620 11225 l0 -2865 2255 0 2255 0 0 2865 0 2865 -2255 0 -2255 0 0
-2865z m2340 1323 l0 -1268 -1035 0 -1035 0 0 1268 0 1267 1035 0 1035 0 0
-1267z m1900 0 l0 -1268 -815 0 -815 0 0 1268 0 1267 815 0 815 0 0 -1267z
m-1900 -2740 l0 -1173 -1035 0 -1035 0 0 1173 0 1172 1035 0 1035 0 0 -1172z
m1900 0 l0 -1173 -815 0 -815 0 0 1173 0 1172 815 0 815 0 0 -1172z"/>
</g>
</svg>
